<?xml version="1.0" encoding="UTF-8" standalone="no"?>
<svg
   xmlns:dc="http://purl.org/dc/elements/1.1/"
   xmlns:cc="http://creativecommons.org/ns#"
   xmlns:rdf="http://www.w3.org/1999/02/22-rdf-syntax-ns#"
   xmlns:svg="http://www.w3.org/2000/svg"
   xmlns="http://www.w3.org/2000/svg"
   xmlns:sodipodi="http://sodipodi.sourceforge.net/DTD/sodipodi-0.dtd"
   xmlns:inkscape="http://www.inkscape.org/namespaces/inkscape"
   width="210mm"
   height="297mm"
   viewBox="0 0 210 297"
   version="1.1"
   id="svg5614"
   inkscape:version="1.0.2-2 (e86c870879, 2021-01-15)"
   sodipodi:docname="cream.svg">
  <defs
     id="defs5608" />
  <sodipodi:namedview
     id="base"
     pagecolor="#ffffff"
     bordercolor="#666666"
     borderopacity="1.0"
     inkscape:pageopacity="0.0"
     inkscape:pageshadow="2"
     inkscape:zoom="0.7"
     inkscape:cx="283.57259"
     inkscape:cy="592.00554"
     inkscape:document-units="mm"
     inkscape:current-layer="layer1"
     inkscape:document-rotation="0"
     showgrid="false"
     inkscape:window-width="1267"
     inkscape:window-height="1040"
     inkscape:window-x="104"
     inkscape:window-y="0"
     inkscape:window-maximized="0" />
  <metadata
     id="metadata5611">
    <rdf:RDF>
      <cc:Work
         rdf:about="">
        <dc:format>image/svg+xml</dc:format>
        <dc:type
           rdf:resource="http://purl.org/dc/dcmitype/StillImage" />
        <dc:title></dc:title>
      </cc:Work>
    </rdf:RDF>
  </metadata>
  <g
     inkscape:label="Layer 1"
     inkscape:groupmode="layer"
     id="layer1">
    <path
       style="fill:none;stroke:#000000;stroke-width:3.33287px;stroke-linecap:butt;stroke-linejoin:miter;stroke-opacity:1"
       d="m 43.5875,133.20152 c 0,0 6.689859,48.86868 61.44666,48.22574 53.77284,-0.6312 64.66767,-48.54735 64.66767,-48.54735 z"
       id="path5542"
       sodipodi:nodetypes="cscc" />
    <path
       style="fill:none;stroke:#000000;stroke-width:2.0938;stroke-linecap:butt;stroke-linejoin:miter;stroke-miterlimit:4;stroke-dasharray:none;stroke-opacity:1"
       d="m 43.025912,131.01707 c 0,0 -11.2332,-14.1106 -1.872134,-27.90044 9.361065,-13.789848 17.652078,-7.055303 17.652078,-7.055303 0,0 31.870775,32.540143 95.749584,15.072723 12.33793,-3.37372 20.20539,19.25325 15.02405,19.88302 z"
       id="path5558"
       sodipodi:nodetypes="cscscc" />
    <path
       style="fill:none;stroke:#000000;stroke-width:2.0938;stroke-linecap:butt;stroke-linejoin:miter;stroke-miterlimit:4;stroke-dasharray:none;stroke-opacity:1"
       d="m 58.805856,96.061327 c 0,0 0.406929,-27.925922 17.117313,-16.996812 11.768096,7.696807 15.761756,17.215085 68.201411,8.338172 22.73398,-3.848332 9.89596,22.769243 9.89596,22.769243 0,0 -60.712871,19.24152 -95.214684,-14.110603"
       id="path5560"
       sodipodi:nodetypes="csscc" />
    <path
       style="fill:none;stroke:#000000;stroke-width:2.0938;stroke-linecap:butt;stroke-linejoin:miter;stroke-miterlimit:4;stroke-dasharray:none;stroke-opacity:1"
       d="m 78.062752,80.08045 c 0,0 2.674609,-11.243852 11.233331,-15.741421 8.558591,-4.497712 13.105207,-15.099054 13.105207,-15.099054 0,0 3.74453,0 6.15169,6.746282 2.40703,6.746426 4.01185,15.420238 17.38463,14.456545 13.37278,-0.963264 17.11718,9.637648 17.38476,10.922525 l 1.36995,5.544421 c 0,0 -49.512909,9.23345 -66.630223,-6.829298 z"
       id="path5562"
       sodipodi:nodetypes="cscssccsc" />
    <path
       style="fill:#000000;stroke:none;stroke-width:3.62081px;stroke-linecap:butt;stroke-linejoin:miter;stroke-opacity:1"
       d="m 58.805856,96.061327 c 0,0 55.452374,32.603403 82.676964,6.093183 25.31974,-24.655407 13.58226,6.54762 12.5372,8.01742 0,0.93034 -62.675947,19.20974 -95.214687,-14.110603 z"
       id="path5568"
       sodipodi:nodetypes="csccc" />
    <path
       style="fill:#000000;stroke:none;stroke-width:4.82198px;stroke-linecap:butt;stroke-linejoin:miter;stroke-opacity:1"
       d="m 78.062752,80.08045 c 0,0 16.010624,10.10783 26.201378,4.550098 23.78297,-12.97057 40.42819,2.2792 40.42819,2.2792 0,0 -49.955951,8.921427 -66.629568,-6.829298 z"
       id="path5570"
       sodipodi:nodetypes="cscc" />
    <path
       style="fill:#000000;fill-opacity:1;stroke:none;stroke-width:3.62081px;stroke-linecap:butt;stroke-linejoin:miter;stroke-opacity:1"
       d="m 50.600154,94.778741 c -21.01755,17.612989 -4.03082,35.890809 47.20035,37.200449 49.686676,1.26956 -54.774592,-0.96183 -54.774592,-0.96183 -8.798954,-13.60364 -3.843319,-13.14848 -5.032179,-20.84515 -1.403316,-9.08631 8.025527,-11.677389 12.606421,-15.393469 z"
       id="path5586"
       sodipodi:nodetypes="cscsc" />
    <path
       style="fill:#000000;fill-opacity:1;stroke:none;stroke-width:3.77978px;stroke-linecap:butt;stroke-linejoin:miter;stroke-opacity:1"
       d="m 73.536214,137.41462 90.435976,0.0389 c 0,0 -21.71758,40.36217 -59.36239,39.42318 -37.644937,-0.93871 65.16613,-31.32452 -31.073586,-39.46208 z"
       id="path5588"
       sodipodi:nodetypes="ccccc" />
  </g>
</svg>
