<?xml version="1.0" encoding="UTF-8" standalone="no"?>
<svg
   xmlns:dc="http://purl.org/dc/elements/1.1/"
   xmlns:cc="http://creativecommons.org/ns#"
   xmlns:rdf="http://www.w3.org/1999/02/22-rdf-syntax-ns#"
   xmlns:svg="http://www.w3.org/2000/svg"
   xmlns="http://www.w3.org/2000/svg"
   xmlns:sodipodi="http://sodipodi.sourceforge.net/DTD/sodipodi-0.dtd"
   xmlns:inkscape="http://www.inkscape.org/namespaces/inkscape"
   width="210mm"
   height="297mm"
   viewBox="0 0 210 297"
   version="1.1"
   id="svg3541"
   sodipodi:docname="cup-latte.svg"
   inkscape:version="1.0.2-2 (e86c870879, 2021-01-15)">
  <defs
     id="defs3535">
    <inkscape:perspective
       sodipodi:type="inkscape:persp3d"
       inkscape:vp_x="82.905611 : 57.867531 : 1"
       inkscape:vp_y="-663.26672 : 748.38307 : 0"
       inkscape:vp_z="240.06605 : 197.15356 : 1"
       inkscape:persp3d-origin="194.31753 : 90.465582 : 1"
       id="perspective4197" />
    <clipPath
       clipPathUnits="userSpaceOnUse"
       id="clipPath1460">
      <g
         inkscape:label="Clip"
         id="use1462"
         transform="matrix(0.96713916,0,0,0.94485057,5.823415,2.0976118)"
         style="fill:#ffffff">
        <g
           id="g6278"
           transform="matrix(-0.51695262,0.82933543,-0.88355082,-0.51695261,362.55062,19.178962)"
           style="fill:#ffffff">
          <g
             id="g6268"
             style="fill:#ffffff">
            <path
               style="fill:#ffffff;fill-opacity:1;stroke:#000000;stroke-width:2.74936;stroke-linecap:round;stroke-linejoin:miter;stroke-miterlimit:4;stroke-dasharray:none;stroke-opacity:1"
               d="m 147.77327,91.005677 14.69978,-49.077618 c 0,0 4.2662,-6.581499 11.4831,-1.126984 5.06296,3.826576 -0.3001,13.370303 -0.3001,13.370303 l -18.14878,41.176169 c 0,0 -5.92566,1.65982 -7.734,-4.34187 z"
               id="path6262"
               sodipodi:nodetypes="ccsccc" />
            <path
               style="fill:#ffffff;stroke:#000000;stroke-width:1.72839;stroke-linecap:butt;stroke-linejoin:miter;stroke-miterlimit:4;stroke-dasharray:none;stroke-opacity:1"
               d="m 162.47305,41.928059 c 0,0 1.36951,6.289472 4.87225,6.768949 4.09738,0.560879 4.77555,-2.330038 3.74704,-4.502982 -1.02849,-2.172938 -3.63178,-2.089438 -4.0468,0.166744"
               id="path6264"
               sodipodi:nodetypes="cssc" />
            <path
               style="fill:#ffffff;stroke:#000000;stroke-width:1.10371;stroke-linecap:round;stroke-linejoin:round;stroke-miterlimit:4;stroke-dasharray:8.8297, 2.20743, 1.10371, 2.20743;stroke-dashoffset:0;stroke-opacity:1"
               d="m 171.12402,47.450548 -15.93336,38.94253"
               id="path6266"
               sodipodi:nodetypes="cc" />
          </g>
          <g
             id="g6276"
             transform="matrix(0.85696499,-0.49931244,0.53195354,0.85696498,-16.625146,90.859865)"
             style="fill:#ffffff">
            <path
               style="fill:#ffffff;fill-opacity:1;stroke:#000000;stroke-width:2.74936;stroke-linecap:round;stroke-linejoin:miter;stroke-miterlimit:4;stroke-dasharray:none;stroke-opacity:1"
               d="m 147.77327,91.005677 14.69978,-49.077618 c 0,0 4.2662,-6.581499 11.4831,-1.126984 5.06296,3.826576 -0.3001,13.370303 -0.3001,13.370303 l -18.14878,41.176169 c 0,0 -5.92566,1.65982 -7.734,-4.34187 z"
               id="path6270"
               sodipodi:nodetypes="ccsccc" />
            <path
               style="fill:#ffffff;stroke:#000000;stroke-width:1.72839;stroke-linecap:butt;stroke-linejoin:miter;stroke-miterlimit:4;stroke-dasharray:none;stroke-opacity:1"
               d="m 162.47305,41.928059 c 0,0 1.36951,6.289472 4.87225,6.768949 4.09738,0.560879 4.77555,-2.330038 3.74704,-4.502982 -1.02849,-2.172938 -3.63178,-2.089438 -4.0468,0.166744"
               id="path6272"
               sodipodi:nodetypes="cssc" />
            <path
               style="fill:#ffffff;stroke:#000000;stroke-width:1.10371;stroke-linecap:round;stroke-linejoin:round;stroke-miterlimit:4;stroke-dasharray:8.8297, 2.20743, 1.10371, 2.20743;stroke-dashoffset:0;stroke-opacity:1"
               d="m 171.12402,47.450548 -15.93336,38.94253"
               id="path6274"
               sodipodi:nodetypes="cc" />
          </g>
        </g>
      </g>
    </clipPath>
  </defs>
  <sodipodi:namedview
     id="base"
     pagecolor="#ffffff"
     bordercolor="#666666"
     borderopacity="1.0"
     inkscape:pageopacity="0.0"
     inkscape:pageshadow="2"
     inkscape:zoom="0.7380427"
     inkscape:cx="350.4282"
     inkscape:cy="616.98588"
     inkscape:document-units="mm"
     inkscape:current-layer="layer2"
     inkscape:document-rotation="0"
     showgrid="false"
     inkscape:window-width="958"
     inkscape:window-height="1008"
     inkscape:window-x="-7"
     inkscape:window-y="0"
     inkscape:window-maximized="0" />
  <metadata
     id="metadata3538">
    <rdf:RDF>
      <cc:Work
         rdf:about="">
        <dc:format>image/svg+xml</dc:format>
        <dc:type
           rdf:resource="http://purl.org/dc/dcmitype/StillImage" />
      </cc:Work>
    </rdf:RDF>
  </metadata>
  <g
     inkscape:groupmode="layer"
     id="layer2"
     inkscape:label="Layer 2" />
  <path
     style="fill:none;stroke:#000000;stroke-width:0.378798px;stroke-linecap:butt;stroke-linejoin:miter;stroke-opacity:1"
     d="M 93.192379,96.744905 141.02287,96.55359 c 0,0 -8.03552,25.63715 -7.46156,36.54249 0.57398,10.90536 0.57398,25.06318 -14.92311,25.06318 -15.49709,0 -19.514851,-8.80081 -18.940877,-25.2545 0.573957,-16.45369 -6.504944,-36.159855 -6.504944,-36.159855 z"
     id="path4131" />
  <path
     style="fill:none;stroke:#000000;stroke-width:0.474345px;stroke-linecap:butt;stroke-linejoin:miter;stroke-opacity:1"
     d="m 113.13135,157.81793 c 0,0 1.00339,9.78104 -16.677594,9.88899 -17.555581,0.10709 45.132924,0.16191 45.132924,0.16191 0,0 -19.0329,0.28867 -19.54387,-9.73938 -0.02,-0.39553 -6.34378,-0.14862 -8.91146,-0.31152 z"
     id="path4133"
     sodipodi:nodetypes="cscsc" />
  <path
     style="fill:none;stroke:#000000;stroke-width:0.378798px;stroke-linecap:butt;stroke-linejoin:miter;stroke-opacity:1"
     d="m 136.43113,113.29426 c 0,0 15.21011,-9.75742 18.74957,-0.38264 3.53945,9.37477 -21.33241,28.21999 -21.33241,28.21999 l -0.19131,-3.25247 c 0,0 20.0888,-14.92313 18.27124,-22.86299 -2.03194,-8.8763 -16.26238,1.91323 -16.26238,1.91323 z"
     id="path4135"
     sodipodi:nodetypes="csccscc" />
  <path
     style="fill:#000000;stroke:none;stroke-width:0.117025"
     d="m 146.89033,108.89815 c -3.69821,0.95599 -7.20117,2.52425 -10.4592,4.39611 -0.16488,0.98598 -0.71973,2.66129 -0.76529,3.63512 2.02747,-1.55116 4.16678,-3.85583 6.37584,-5.20314 1.5531,-1.05428 3.31381,-1.83756 4.91723,-2.79042 -0.004,-0.0304 -0.0378,-0.0478 -0.0686,-0.0377 z"
     id="path4141"
     sodipodi:nodetypes="sccccss" />
  <path
     style="fill:#000000;stroke:none;stroke-width:0.102228"
     d="m 148.67951,127.13517 c -1.45534,1.22849 -2.83128,2.57469 -4.42149,3.63559 -1.40379,1.0276 -3.28128,1.77672 -4.83345,2.52927 -2.07194,1.57675 -3.69062,3.00742 -5.76759,4.57911 0.0753,0.93096 -0.0203,2.37117 0.19131,3.25247 2.76395,-2.12278 5.36309,-4.47148 7.94081,-6.8257 2.36166,-2.29255 4.76132,-4.56685 6.88907,-7.08908 0.0114,-0.0152 1.35335,-1.36449 1.28655,-1.33299 z"
     id="path4143"
     sodipodi:nodetypes="ccccccccc" />
  <path
     style="fill:none;stroke:#000000;stroke-width:0.645687;stroke-linecap:butt;stroke-linejoin:miter;stroke-miterlimit:4;stroke-dasharray:none;stroke-opacity:1"
     d="M 95.189026,97.675811 139.3124,97.488977 c 0,0 -7.41273,25.036743 -6.88323,35.686683 0.52947,10.64997 0.52947,24.47623 -13.76651,24.47623 -14.29598,0 -18.00235,-8.59471 -17.47286,-24.66308 0.52948,-16.06834 -6.000774,-35.312999 -6.000774,-35.312999 z"
     id="path4131-9" />
  <path
     style="fill:#000000;stroke:#000000;stroke-width:0.48274px;stroke-linecap:butt;stroke-linejoin:miter;stroke-opacity:1"
     d="m 118.49858,158.11419 c 0,0 -1.35622,9.72904 14.76917,9.72904 l -14.66454,-3e-5 z"
     id="path4171"
     sodipodi:nodetypes="cccc" />
  <path
     style="fill:#000000;stroke:none;stroke-width:0.0954386"
     d="m 101.07656,137.10769 c 0.11224,4.10243 0.67804,8.20183 2.17399,12.0684 1.22473,3.28422 3.806,6.39696 7.09774,7.73863 3.49398,1.46035 7.68955,1.57607 11.41831,1.15851 2.65047,-0.37108 5.08644,-1.36512 6.83116,-3.42619 2.35526,-2.57203 3.29007,-6.41247 3.75732,-9.76788 0.34082,-2.8123 0.25668,-6.14043 0.13357,-8.96709 -11.01665,0.0427 -18.41774,0.0953 -31.26862,0.11754 z"
     id="path4173"
     sodipodi:nodetypes="ccccccccc" />
  <path
     style="fill:#ffffff;stroke:none;stroke-width:0.322792px;stroke-linecap:butt;stroke-linejoin:miter;stroke-opacity:1"
     d="m 105.58848,141.49573 c 0,0 0.55079,14.43779 8.55974,15.85089 l 4.35036,0.76757 c 0,0 -12.84918,-6.84298 -12.9101,-16.61843 z"
     id="path4175"
     sodipodi:nodetypes="csccc" />
  <path
     style="fill:#ffffff;stroke:#000000;stroke-width:0.259499px;stroke-linecap:butt;stroke-linejoin:miter;stroke-opacity:1"
     d="m 117.20325,136.69361 14.35424,0.25069 c 0,0 0.34136,12.96574 -2.80245,15.49156 -3.14386,2.52582 0.25588,-0.23496 0.25588,-0.23496 0,0 6.21456,-15.50729 -11.80767,-15.50729 z"
     id="path4177"
     sodipodi:nodetypes="ccscc" />
  <path
     style="fill:#000000;stroke:#000000;stroke-width:0.215735px;stroke-linecap:butt;stroke-linejoin:miter;stroke-opacity:1"
     d="m 101.22003,136.02961 0.51195,-38.321758 h -6.518114 c 0,0 4.644535,9.299898 6.006164,38.321758 z"
     id="path4179"
     sodipodi:nodetypes="cccc" />
  <path
     style="fill:#000000;stroke:#000000;stroke-width:0.164627px;stroke-linecap:butt;stroke-linejoin:miter;stroke-opacity:1"
     d="m 101.33685,119.0424 v 14.66959 h 9.82308 c 0,0 -9.40209,0.5173 -9.82308,-14.66959 z"
     id="path4179-7" />
  <path
     style="fill:#000000;stroke:#000000;stroke-width:0.243723px;stroke-linecap:butt;stroke-linejoin:miter;stroke-opacity:1"
     d="m 101.05556,125.04312 0.67642,-27.335268 h 11.61143 c 0,0 -11.79023,-0.823917 -12.28785,27.335268 z"
     id="path4179-7-5"
     sodipodi:nodetypes="cccc" />
  <path
     style="fill:none;stroke:#000000;stroke-width:0.532775;stroke-linecap:butt;stroke-linejoin:miter;stroke-miterlimit:4;stroke-dasharray:none;stroke-opacity:1"
     d="m 119.04953,94.740599 c 0,0 -9.22704,-2.93799 4.25866,-6.34988 13.48566,-3.411889 -8.92287,-9.951308 -8.92287,-9.951308 0,0 -8.11168,-0.758202 3.75166,-7.581953"
     id="path4241" />
</svg>
