<?xml version="1.0" encoding="UTF-8" standalone="no"?>
<svg
   xmlns:osb="http://www.openswatchbook.org/uri/2009/osb"
   xmlns:dc="http://purl.org/dc/elements/1.1/"
   xmlns:cc="http://creativecommons.org/ns#"
   xmlns:rdf="http://www.w3.org/1999/02/22-rdf-syntax-ns#"
   xmlns:svg="http://www.w3.org/2000/svg"
   xmlns="http://www.w3.org/2000/svg"
   xmlns:sodipodi="http://sodipodi.sourceforge.net/DTD/sodipodi-0.dtd"
   xmlns:inkscape="http://www.inkscape.org/namespaces/inkscape"
   width="210mm"
   height="297mm"
   viewBox="0 0 210 297"
   version="1.1"
   id="svg8"
   inkscape:version="1.0.2-2 (e86c870879, 2021-01-15)"
   sodipodi:docname="cup-cap.svg">
  <defs
     id="defs2">
    <linearGradient
       id="linearGradient3503"
       osb:paint="solid">
      <stop
         style="stop-color:#000000;stop-opacity:1;"
         offset="0"
         id="stop3501" />
    </linearGradient>
    <clipPath
       clipPathUnits="userSpaceOnUse"
       id="clipPath3523">
      <g
         inkscape:label="Clip"
         id="use3525">
        <path
           style="fill:none;stroke:#000000;stroke-width:0.342;stroke-linecap:butt;stroke-linejoin:miter;stroke-miterlimit:4;stroke-dasharray:none;stroke-opacity:1"
           d="m 118.05656,170.71289 c 0,0 6.43784,-2.80677 5.57454,3.03797 -0.86328,5.84475 -11.4097,6.56957 -11.4097,6.56957"
           id="path3529"
           sodipodi:nodetypes="csc" />
        <path
           style="fill:none;stroke:#000000;stroke-width:0.271731px;stroke-linecap:butt;stroke-linejoin:miter;stroke-opacity:1"
           d="m 117.7797,171.66205 c 0,0 5.18665,-2.19763 4.49113,2.37865 -0.69551,4.57629 -8.97,5.2697 -8.97,5.2697"
           id="path3531"
           sodipodi:nodetypes="csc" />
      </g>
    </clipPath>
  </defs>
  <sodipodi:namedview
     id="base"
     pagecolor="#ffffff"
     bordercolor="#666666"
     borderopacity="1.0"
     inkscape:pageopacity="0.0"
     inkscape:pageshadow="2"
     inkscape:zoom="2.7130639"
     inkscape:cx="414.48368"
     inkscape:cy="664.38185"
     inkscape:document-units="mm"
     inkscape:current-layer="layer2"
     inkscape:document-rotation="0"
     showgrid="false"
     inkscape:window-width="958"
     inkscape:window-height="1008"
     inkscape:window-x="946"
     inkscape:window-y="0"
     inkscape:window-maximized="0"
     inkscape:lockguides="true" />
  <metadata
     id="metadata5">
    <rdf:RDF>
      <cc:Work
         rdf:about="">
        <dc:format>image/svg+xml</dc:format>
        <dc:type
           rdf:resource="http://purl.org/dc/dcmitype/StillImage" />
        <dc:title />
      </cc:Work>
    </rdf:RDF>
  </metadata>
  <g
     inkscape:groupmode="layer"
     id="layer2"
     inkscape:label="Layer 2">
    <path
       style="fill:#ffffff;stroke:#000000;stroke-width:0.565;stroke-linecap:butt;stroke-linejoin:miter;stroke-opacity:1;fill-opacity:1;stroke-miterlimit:4;stroke-dasharray:none"
       d="m 89.769343,167.82143 c 0,0 0.954061,11.68357 8.976935,14.41034 l 10.725072,-0.0473 c 0,0 8.25363,-3.92785 8.92969,-14.3631 z"
       id="path968"
       sodipodi:nodetypes="ccccc" />
    <path
       style="fill:none;stroke:#000000;stroke-width:0.261692;stroke-linecap:round;stroke-linejoin:miter;stroke-miterlimit:4;stroke-dasharray:none;stroke-opacity:1;paint-order:markers fill stroke"
       d="m 104.55987,166.67091 c 0,0 0.18944,-1.47207 -2.03652,-2.07012 -2.22597,-0.59803 4.55314,-1.39253 2.81864,-2.35198 l -3.96656,-2.19416 c -2.314323,-1.28021 7.68641,-1.53773 2.71084,-6.08042"
       id="path896"
       sodipodi:nodetypes="csssc" />
    <path
       style="fill:#000000;stroke:none;stroke-width:0.0373176"
       d="m 91.448365,171.32744 c -0.104873,0.087 0.03666,0.2622 0.04677,0.37217 0.916236,2.68184 2.208638,5.29735 4.200794,7.24177 1.049313,1.03391 2.292077,1.8307 3.620501,2.37821 2.30858,-0.0838 4.61995,0.002 6.92872,-0.0708 0.082,0.0358 0.17857,-0.0814 0.0554,-0.0873 -3.1371,-0.2006 -6.28913,-1.08213 -8.959004,-2.89664 -2.422423,-1.62125 -4.374125,-3.98899 -5.700225,-6.68894 -0.05664,-0.0774 -0.09459,-0.22454 -0.192995,-0.24828 z"
       id="path3497" />
    <path
       style="fill:#000000;stroke:none;stroke-width:0.0327806"
       d="m 110.75151,171.91819 c 2.81808,3.07602 0.42453,5.65879 -0.57366,8.08715 2.09213,-1.44041 4.29827,-5.01983 5.05629,-7.26625 0.36293,-1.10107 0.62058,-2.31128 0.75279,-3.47344 -7.03414,0.0128 -15.62485,-0.0275 -22.743487,-0.0284 13.426657,0.88349 13.539417,-0.47478 17.508067,2.68103 z"
       id="path3507"
       sodipodi:nodetypes="cccccc" />
    <path
       style="fill:#000000;fill-opacity:1;stroke:#000000;stroke-width:0.263419px;stroke-linecap:butt;stroke-linejoin:miter;stroke-opacity:1"
       d="m 117.6599,171.87439 0.27438,-0.94931 c 0,0 5.75887,-2.14721 5.48591,2.16918 -0.27295,4.31639 -4.43279,6.3367 -10.56814,6.93592 v 0 l 0.36901,-0.50621 c 0,0 8.93749,-0.74743 8.86302,-6.16113 -0.0483,-3.51135 -4.42418,-1.48845 -4.42418,-1.48845 z"
       id="path3527"
       sodipodi:nodetypes="ccscccsc" />
  </g>
</svg>
