<?xml version="1.0" encoding="UTF-8" standalone="no"?>
<svg
   xmlns:dc="http://purl.org/dc/elements/1.1/"
   xmlns:cc="http://creativecommons.org/ns#"
   xmlns:rdf="http://www.w3.org/1999/02/22-rdf-syntax-ns#"
   xmlns:svg="http://www.w3.org/2000/svg"
   xmlns="http://www.w3.org/2000/svg"
   xmlns:sodipodi="http://sodipodi.sourceforge.net/DTD/sodipodi-0.dtd"
   xmlns:inkscape="http://www.inkscape.org/namespaces/inkscape"
   width="210mm"
   height="297mm"
   viewBox="0 0 210 297"
   version="1.1"
   id="svg1692"
   inkscape:version="1.0.2-2 (e86c870879, 2021-01-15)"
   sodipodi:docname="espresso.svg">
  <defs
     id="defs1686" />
  <sodipodi:namedview
     id="base"
     pagecolor="#ffffff"
     bordercolor="#666666"
     borderopacity="1.0"
     inkscape:pageopacity="0.0"
     inkscape:pageshadow="2"
     inkscape:zoom="0.35"
     inkscape:cx="400"
     inkscape:cy="674.28571"
     inkscape:document-units="mm"
     inkscape:current-layer="layer1"
     inkscape:document-rotation="0"
     showgrid="false"
     inkscape:window-width="1267"
     inkscape:window-height="1040"
     inkscape:window-x="234"
     inkscape:window-y="0"
     inkscape:window-maximized="0" />
  <metadata
     id="metadata1689">
    <rdf:RDF>
      <cc:Work
         rdf:about="">
        <dc:format>image/svg+xml</dc:format>
        <dc:type
           rdf:resource="http://purl.org/dc/dcmitype/StillImage" />
        <dc:title></dc:title>
      </cc:Work>
    </rdf:RDF>
  </metadata>
  <g
     inkscape:label="Layer 1"
     inkscape:groupmode="layer"
     id="layer1">
    <path
       style="fill:none;stroke:#000000;stroke-width:1.04939px;stroke-linecap:butt;stroke-linejoin:miter;stroke-opacity:1"
       d="m 67.701142,113.63364 h 59.224898 l -14.17436,38.29823 H 83.358287 Z"
       id="path1562"
       sodipodi:nodetypes="ccccc" />
    <path
       style="fill:none;stroke:#000000;stroke-width:1.04939px;stroke-linecap:butt;stroke-linejoin:miter;stroke-opacity:1"
       d="m 125.39434,117.99555 c 0,0 9.27518,-0.27834 11.99814,7.33168 2.72299,7.61011 -1.77203,18.41651 -10.21115,18.46841 -9.46401,0.058 -10.39174,-3.31381 -10.39174,-3.31381"
       id="path1568"
       sodipodi:nodetypes="cssc" />
    <path
       style="fill:none;stroke:#000000;stroke-width:0.812849px;stroke-linecap:butt;stroke-linejoin:miter;stroke-opacity:1"
       d="m 124.17642,121.37965 c 0,0 8.41729,0.0737 10.63859,5.67084 2.22131,5.59723 -0.70924,13.11096 -8.32986,13.58352 -7.70524,0.47779 -8.51049,-2.97966 -8.51049,-2.97966"
       id="path1568-4"
       sodipodi:nodetypes="cssc" />
    <path
       style="fill:#000000;fill-opacity:1;stroke:none;stroke-width:1.05104;stroke-linecap:butt;stroke-linejoin:miter;stroke-miterlimit:4;stroke-dasharray:none;stroke-opacity:1"
       d="M 122.12036,115.8595 H 72.119066 l 13.718771,33.53375 c 0,0 -14.621284,-33.66502 36.282523,-33.53375 z"
       id="path1590" />
    <path
       style="fill:none;stroke:#000000;stroke-width:0.868598;stroke-linecap:round;stroke-linejoin:miter;stroke-miterlimit:4;stroke-dasharray:none;stroke-opacity:1"
       d="m 98.382597,111.30693 c 0,0 -3.58742,0.82861 2.911293,-7.31408 3.33186,-4.174771 -0.70248,-5.432174 -3.771993,-7.94296 0,0 -5.39935,-2.566581 2.935453,-9.904679"
       id="path4241-8-3"
       sodipodi:nodetypes="cscc" />
    <path
       style="fill:none;stroke:#000000;stroke-width:0.868598;stroke-linecap:round;stroke-linejoin:miter;stroke-miterlimit:4;stroke-dasharray:none;stroke-opacity:1"
       d="m 101.45716,111.26045 c 0,0 -3.587423,0.82862 2.91129,-7.31407 3.33186,-4.174775 -0.70248,-5.432177 -3.77199,-7.942964 0,0 -5.399353,-2.56658 2.93545,-9.904679"
       id="path4241-8-3-4"
       sodipodi:nodetypes="cscc" />
  </g>
</svg>
