<svg xmlns="http://www.w3.org/2000/svg" width="70.716" height="70.717" viewBox="0 0 70.716 70.717">
  <path id="iconfinder_Circled_Instagram_svg_5279112" d="M35.358,0A35.358,35.358,0,1,1,0,35.358,35.375,35.375,0,0,1,35.358,0Zm0,13.259c-6,0-6.754.025-9.111.133a16.222,16.222,0,0,0-5.364,1.027,11.3,11.3,0,0,0-6.463,6.463,16.224,16.224,0,0,0-1.027,5.364c-.107,2.357-.133,3.11-.133,9.111s.025,6.754.133,9.111a16.224,16.224,0,0,0,1.027,5.364A11.3,11.3,0,0,0,20.882,56.3a16.226,16.226,0,0,0,5.364,1.027c2.357.108,3.11.133,9.111.133s6.754-.025,9.111-.133A16.224,16.224,0,0,0,49.834,56.3,11.3,11.3,0,0,0,56.3,49.834a16.224,16.224,0,0,0,1.027-5.364c.108-2.357.133-3.11.133-9.111s-.025-6.754-.133-9.111A16.224,16.224,0,0,0,56.3,20.883a11.3,11.3,0,0,0-6.463-6.463,16.221,16.221,0,0,0-5.364-1.027C42.112,13.285,41.36,13.259,35.358,13.259Zm0,3.982c5.9,0,6.6.023,8.93.129a12.228,12.228,0,0,1,4.1.761,7.319,7.319,0,0,1,4.194,4.194,12.225,12.225,0,0,1,.761,4.1c.106,2.33.129,3.029.129,8.93s-.023,6.6-.129,8.93a12.225,12.225,0,0,1-.761,4.1,7.319,7.319,0,0,1-4.194,4.194,12.225,12.225,0,0,1-4.1.761c-2.33.106-3.029.129-8.93.129s-6.6-.023-8.93-.129a12.225,12.225,0,0,1-4.1-.761,7.318,7.318,0,0,1-4.194-4.194,12.227,12.227,0,0,1-.761-4.1c-.106-2.33-.129-3.029-.129-8.93s.022-6.6.129-8.93a12.227,12.227,0,0,1,.761-4.1,7.318,7.318,0,0,1,4.194-4.194,12.228,12.228,0,0,1,4.1-.761C28.759,17.264,29.458,17.241,35.358,17.241Zm0,6.769A11.348,11.348,0,1,0,46.706,35.358,11.348,11.348,0,0,0,35.358,24.01Zm0,18.714a7.366,7.366,0,1,1,7.366-7.366A7.366,7.366,0,0,1,35.358,42.724ZM49.807,23.562a2.652,2.652,0,1,1-2.652-2.652A2.652,2.652,0,0,1,49.807,23.562Z" fill="#fff" fill-rule="evenodd"/>
</svg>
