<?xml version="1.0" encoding="UTF-8" standalone="no"?>
<svg
   xmlns:dc="http://purl.org/dc/elements/1.1/"
   xmlns:cc="http://creativecommons.org/ns#"
   xmlns:rdf="http://www.w3.org/1999/02/22-rdf-syntax-ns#"
   xmlns:svg="http://www.w3.org/2000/svg"
   xmlns="http://www.w3.org/2000/svg"
   xmlns:sodipodi="http://sodipodi.sourceforge.net/DTD/sodipodi-0.dtd"
   xmlns:inkscape="http://www.inkscape.org/namespaces/inkscape"
   width="210mm"
   height="297mm"
   viewBox="0 0 210 297"
   version="1.1"
   id="svg4958"
   inkscape:version="1.0.2-2 (e86c870879, 2021-01-15)"
   sodipodi:docname="milk.svg">
  <defs
     id="defs4952" />
  <sodipodi:namedview
     id="base"
     pagecolor="#ffffff"
     bordercolor="#666666"
     borderopacity="1.0"
     inkscape:pageopacity="0.0"
     inkscape:pageshadow="2"
     inkscape:zoom="1.979899"
     inkscape:cx="148.63077"
     inkscape:cy="483.24928"
     inkscape:document-units="mm"
     inkscape:current-layer="layer1"
     inkscape:document-rotation="0"
     showgrid="false"
     inkscape:window-width="1267"
     inkscape:window-height="1040"
     inkscape:window-x="78"
     inkscape:window-y="0"
     inkscape:window-maximized="0" />
  <metadata
     id="metadata4955">
    <rdf:RDF>
      <cc:Work
         rdf:about="">
        <dc:format>image/svg+xml</dc:format>
        <dc:type
           rdf:resource="http://purl.org/dc/dcmitype/StillImage" />
        <dc:title></dc:title>
      </cc:Work>
    </rdf:RDF>
  </metadata>
  <g
     inkscape:label="Layer 1"
     inkscape:groupmode="layer"
     id="layer1">
    <path
       style="fill:none;stroke:#000000;stroke-width:0.264583px;stroke-linecap:butt;stroke-linejoin:miter;stroke-opacity:1"
       d="M 11.11964,110.32601 H 24.4287 c 0,0 -0.94104,1.92691 -0.53774,3.18163 0.40331,1.25473 1.12029,2.86795 1.16511,5.95995 0.0448,3.09201 -2.37503,7.61798 -2.37503,7.61798 l -8.15572,0.0448 c 0,0 -2.69048,-4.63356 -2.37501,-7.39392 0.35849,-3.13681 4.03305,-6.72174 -1.03067,-9.41045 z"
       id="path4921"
       sodipodi:nodetypes="ccssccscc" />
    <path
       style="fill:none;stroke:#000000;stroke-width:0.272;stroke-linecap:butt;stroke-linejoin:bevel;stroke-miterlimit:4;stroke-dasharray:none;stroke-opacity:1"
       d="m 24.4287,110.32601 c 6.87913,0.0707 6.95406,7.07481 0.62736,10.26189 l 0.0703,-1.3488 c 4.9438,-3.51307 4.18397,-7.49066 -1.10321,-7.78738 z"
       id="path4927"
       sodipodi:nodetypes="ccccc" />
    <path
       style="fill:#000000;fill-opacity:1;stroke:none;stroke-width:0.265;stroke-linecap:butt;stroke-linejoin:miter;stroke-miterlimit:4;stroke-dasharray:none;stroke-opacity:1"
       d="m 12.57601,121.46171 c 0.239,0.74686 1.31556,3.92969 2.38623,5.22056 h 7.28189 c 0,0 -7.71881,0.4481 -9.66812,-5.22056 z"
       id="path4931"
       sodipodi:nodetypes="cccc" />
    <path
       style="fill:#000000;stroke:none;stroke-width:0.279653px;stroke-linecap:butt;stroke-linejoin:miter;stroke-opacity:1"
       d="m 13.37974,111.68107 c 0,0 1.55838,1.25154 0.36326,4.22587 -1.24731,3.10423 -1.00966,3.85894 -1.00966,3.85894 0,0 0.50566,-7.77011 9.04335,-8.13792 z"
       id="path4933"
       sodipodi:nodetypes="csccc" />
    <path
       style="fill:#000000;stroke:none;stroke-width:0.264583px;stroke-linecap:butt;stroke-linejoin:miter;stroke-opacity:1"
       d="m 24.4287,110.32601 c 0,0 6.53879,1.20909 3.51772,5.98236 -1.1203,1.77006 0.24646,-0.44812 0.24646,-0.44812 0,0 1.96338,-3.54162 -4.0577,-4.36372 -0.11955,-0.0163 0.29352,-1.17052 0.29352,-1.17052 z"
       id="path4935"
       sodipodi:nodetypes="cscsc" />
  </g>
</svg>
