<?xml version="1.0" encoding="UTF-8" standalone="no"?>
<svg
   xmlns:dc="http://purl.org/dc/elements/1.1/"
   xmlns:cc="http://creativecommons.org/ns#"
   xmlns:rdf="http://www.w3.org/1999/02/22-rdf-syntax-ns#"
   xmlns:svg="http://www.w3.org/2000/svg"
   xmlns="http://www.w3.org/2000/svg"
   xmlns:sodipodi="http://sodipodi.sourceforge.net/DTD/sodipodi-0.dtd"
   xmlns:inkscape="http://www.inkscape.org/namespaces/inkscape"
   width="210mm"
   height="297mm"
   viewBox="0 0 210 297"
   version="1.1"
   id="svg3906"
   inkscape:version="1.0.2-2 (e86c870879, 2021-01-15)"
   sodipodi:docname="syrup_carm.svg">
  <defs
     id="defs3900" />
  <sodipodi:namedview
     id="base"
     pagecolor="#ffffff"
     bordercolor="#666666"
     borderopacity="1.0"
     inkscape:pageopacity="0.0"
     inkscape:pageshadow="2"
     inkscape:zoom="0.35"
     inkscape:cx="400"
     inkscape:cy="560"
     inkscape:document-units="mm"
     inkscape:current-layer="layer1"
     inkscape:document-rotation="0"
     showgrid="false"
     inkscape:window-width="1267"
     inkscape:window-height="1040"
     inkscape:window-x="659"
     inkscape:window-y="18"
     inkscape:window-maximized="0" />
  <metadata
     id="metadata3903">
    <rdf:RDF>
      <cc:Work
         rdf:about="">
        <dc:format>image/svg+xml</dc:format>
        <dc:type
           rdf:resource="http://purl.org/dc/dcmitype/StillImage" />
        <dc:title></dc:title>
      </cc:Work>
    </rdf:RDF>
  </metadata>
  <g
     inkscape:label="Layer 1"
     inkscape:groupmode="layer"
     id="layer1">
    <path
       style="fill:none;stroke:#000000;stroke-width:1.14751px;stroke-linecap:butt;stroke-linejoin:miter;stroke-opacity:1"
       d="m 94.620144,72.095718 c 0,0 0.994801,34.503962 -6.871342,39.578932 -8.52047,5.49709 -22.26315,8.7953 -23.087702,31.88303 -1.041004,29.1483 6.046773,96.47362 6.046773,96.47362 h 79.982417 c 0,0 14.41701,-86.63239 4.12281,-106.91804 -9.34501,-18.41521 -12.26859,-16.45146 -21.16373,-23.08774 -11.06996,-8.25872 -8.5205,-37.929759 -8.5205,-37.929759 z"
       id="path3095"
       sodipodi:nodetypes="cssccsscc" />
    <path
       style="fill:#000000;stroke:#000000;stroke-width:4.09853;stroke-linecap:butt;stroke-linejoin:miter;stroke-miterlimit:4;stroke-dasharray:none;stroke-opacity:1"
       d="M 100.49117,72.095718 H 94.620144 V 57.528484 c 0,0 -0.234283,-6.51947 5.636186,-6.596496 l 20.94416,-0.27497 c 0,0 4.55122,0.998435 4.40316,5.857721 l -0.47478,15.580891 z"
       id="path3097"
       sodipodi:nodetypes="cccscscc" />
    <path
       style="fill:none;stroke:#000000;stroke-width:1.18544px;stroke-linecap:butt;stroke-linejoin:miter;stroke-opacity:1"
       d="m 128.702,102.24688 c 0,0 19.51461,-15.252663 30.78359,-0.87982 11.26903,14.37267 -3.84793,33.14516 -3.84793,33.14516 0,0 3.02337,9.6795 2.47369,12.0261 -0.54972,2.34657 20.36974,-27.39756 9.34503,-47.224507 -14.84212,-26.692141 -41.5029,-3.868575 -41.5029,-3.868575 z"
       id="path3099"
       sodipodi:nodetypes="cscsscc" />
    <path
       style="fill:#000000;fill-opacity:1;stroke:#000000;stroke-width:1.43916px;stroke-linecap:butt;stroke-linejoin:miter;stroke-opacity:1"
       d="m 86.016922,215.56603 51.205288,0.35998 v -55.75127 c 0,0 0.6607,-27.3361 -25.10712,-27.3361 -25.767806,0 -26.560872,25.12121 -26.560872,25.12121 z"
       id="path3101"
       sodipodi:nodetypes="cccscc" />
    <path
       style="fill:#ffffff;stroke:none;stroke-width:1.34369px;stroke-linecap:butt;stroke-linejoin:miter;stroke-opacity:1"
       d="M 95.388603,68.406743 V 56.503419 c 0,0 -0.313275,-5.290346 5.012377,-5.290346 5.32564,0 17.85656,0 17.85656,0 0,0 -20.989298,-1.653245 -22.868937,17.19367 z"
       id="path3103" />
    <path
       style="fill:#000000;stroke:none;stroke-width:1.21347px;stroke-linecap:butt;stroke-linejoin:miter;stroke-opacity:1"
       d="M 121.83067,77.889684 H 97.767528 c 0,0 1.173825,25.333516 -3.521428,32.818366 -4.695242,7.48494 -11.444659,9.21222 -11.444659,9.21222 0,0 19.367879,-2.01521 19.954779,-15.54555 0.58691,-13.530371 -2.05416,-25.909244 19.07445,-26.485036 z"
       id="path3105"
       sodipodi:nodetypes="ccscsc" />
    <path
       style="fill:#000000;stroke:none;stroke-width:1.11788px;stroke-linecap:butt;stroke-linejoin:miter;stroke-opacity:1"
       d="m 129.89292,116.07229 c 0,0 22.17161,6.04682 22.17161,26.93567 0,20.88889 -0.52166,32.15787 -0.52166,32.15787 0,0 3.91264,-44.80114 -21.64995,-59.09354 z"
       id="path3107" />
    <path
       style="fill:#000000;stroke:none;stroke-width:1.05256px;stroke-linecap:butt;stroke-linejoin:miter;stroke-opacity:1"
       d="M 144.91836,236.71879 H 74.55583 L 69.058758,192.6398 c 0,0 1.649115,46.65858 75.859602,44.07899 z"
       id="path3109"
       sodipodi:nodetypes="cccc" />
    <path
       style="fill:#000000;stroke:none;stroke-width:1.19414px;stroke-linecap:butt;stroke-linejoin:miter;stroke-opacity:1"
       d="m 133.13977,99.774623 c 0,0 9.28846,-12.080056 32.00586,0.363017 9.58369,5.24931 2.92292,26.66871 2.92292,26.66871 0,0 -3.36435,-46.609311 -34.92878,-27.031597 z"
       id="path3107-2"
       sodipodi:nodetypes="csccc" />
    <path
       style="fill:#000000;fill-opacity:1;stroke:none;stroke-width:1.14751px;stroke-linecap:butt;stroke-linejoin:miter;stroke-opacity:1"
       d="m 125.95348,95.445238 2.74852,6.801642 4.43777,-3.460157 c 0,0 -3.88809,2.692227 -7.18629,-3.341485 z"
       id="path3131" />
    <path
       style="fill:#000000;fill-opacity:1;stroke:none;stroke-width:1.14751px;stroke-linecap:butt;stroke-linejoin:miter;stroke-opacity:1"
       d="m 155.63766,134.51222 2.74853,11.24431 c 8.49487,-5.33754 15.05255,-43.97997 9.41373,-24.25584 -1.52851,5.34664 -13.73413,15.76232 -12.16226,13.01153 z"
       id="path3133"
       sodipodi:nodetypes="ccsc" />
    <path
       style="fill:#000000;fill-opacity:1;stroke:#000000;stroke-width:1.14751px;stroke-linecap:butt;stroke-linejoin:miter;stroke-opacity:1"
       d="m 162.4403,129.95241 c 0,0 5.01608,-5.70319 3.84793,-14.77337 -1.16814,-9.07019 3.0234,5.77193 3.0234,5.77193 z"
       id="path3135"
       sodipodi:nodetypes="cscc" />
    <path
       style="fill:#ffffff;fill-opacity:1;stroke:#000000;stroke-width:0.587819px;stroke-linecap:butt;stroke-linejoin:miter;stroke-opacity:1"
       d="m 98.969653,174.86896 9.574097,-9.71492 c 0,0 2.5343,-2.39349 4.50544,-0.14096 1.97114,2.25271 9.7149,9.71484 9.7149,9.71484 0,0 1.97115,1.40799 0.14095,3.51992 -1.83032,2.11193 -9.85568,9.85566 -9.85568,9.85566 0,0 -1.54875,2.11193 -3.66068,0.14095 -2.11194,-1.97115 -10.137278,-9.99644 -10.137278,-9.99644 0,0 -2.393525,-1.40798 -0.281601,-3.37909 z"
       id="path3151" />
    <path
       style="fill:#ffffff;fill-opacity:1;stroke:#000000;stroke-width:0.587819px;stroke-linecap:butt;stroke-linejoin:miter;stroke-opacity:1"
       d="m 101.64477,181.34554 c 0,0 -18.07278,1.14464 -14.501944,4.50542 l 14.361144,13.51637 c 3.11824,2.93484 4.36465,-14.50192 4.36465,-14.50192 z"
       id="path3153"
       sodipodi:nodetypes="csscc" />
    <path
       style="fill:#ffffff;fill-opacity:1;stroke:#000000;stroke-width:0.587819px;stroke-linecap:butt;stroke-linejoin:miter;stroke-opacity:1"
       d="m 119.0494,171.22202 c 0,0 18.07847,1.05043 14.94052,-2.71774 l -12.62024,-15.15464 c -2.74025,-3.29057 -6.08724,13.86727 -6.08724,13.86727 z"
       id="path3153-2"
       sodipodi:nodetypes="csscc" />
    <path
       style="fill:#ffffff;fill-opacity:1;stroke:#000000;stroke-width:0.587819px;stroke-linecap:butt;stroke-linejoin:miter;stroke-opacity:1"
       d="m 105.12643,168.86014 10.15601,-1.64323 7.48165,7.51114 -23.512859,3.52 c 0,0 -1.95829,-1.85041 -0.281601,-3.37909 1.6767,-1.52877 6.15678,-6.00882 6.15678,-6.00882 z"
       id="path3189" />
    <path
       style="fill:#ffffff;fill-opacity:1;stroke:#000000;stroke-width:0.587819px;stroke-linecap:butt;stroke-linejoin:miter;stroke-opacity:1"
       d="m 105.86862,184.86541 12.59852,-1.96769 z"
       id="path3213" />
    <path
       style="fill:#000000;stroke:none;stroke-width:1.14751px;stroke-linecap:butt;stroke-linejoin:miter;stroke-opacity:1"
       d="m 100.46079,175.57812 6.32163,-6.18417 7.35234,-1.09945 5.22222,5.01612 z"
       id="path3868"
       sodipodi:nodetypes="ccccc" />
    <path
       style="fill:#000000;fill-opacity:1;stroke:none;stroke-width:1.14751px;stroke-linecap:butt;stroke-linejoin:miter;stroke-opacity:1"
       d="m 108.29412,185.47286 1.64911,1.85526 2.0614,-0.206 2.47369,-2.54239 z"
       id="path3870" />
    <path
       style="fill:#000000;fill-opacity:1;stroke:none;stroke-width:1.14752px;stroke-linecap:butt;stroke-linejoin:miter;stroke-opacity:1"
       d="m 96.681728,185.53414 c 0,0 -4.191696,-0.54231 -5.222385,-0.19864 -1.030712,0.34349 -1.442997,0.54968 -1.442997,0.54968 l 4.878662,4.60388 9.284082,-7.24281 c 0,0 -2.75596,2.418 -7.497362,2.28797 z"
       id="path3872" />
    <path
       style="fill:#000000;fill-opacity:1;stroke:none;stroke-width:1.14751px;stroke-linecap:butt;stroke-linejoin:miter;stroke-opacity:1"
       d="m 100.06082,193.27796 4.11827,-10.03171 c 0,0 -5.548944,4.23154 -4.11827,10.03171 z"
       id="path3874" />
    <path
       style="fill:#000000;fill-opacity:1;stroke:none;stroke-width:1.14752px;stroke-linecap:butt;stroke-linejoin:miter;stroke-opacity:1"
       d="m 125.08034,168.12579 c 0,0 4.09024,1.06492 5.15598,0.85358 1.06549,-0.21209 1.50062,-0.36388 1.50062,-0.36388 l -4.2612,-5.18067 -10.12093,6.01824 c 0,0 3.03807,-2.05234 7.72549,-1.32748 z"
       id="path3872-9" />
    <path
       style="fill:#000000;fill-opacity:1;stroke:none;stroke-width:1.14751px;stroke-linecap:butt;stroke-linejoin:miter;stroke-opacity:1"
       d="m 122.70154,160.01856 -5.34673,9.43445 c 0,0 6.03689,-3.50043 5.34673,-9.43445 z"
       id="path3874-0" />
  </g>
</svg>
