<?xml version="1.0" encoding="UTF-8" standalone="no"?>
<svg
   xmlns:dc="http://purl.org/dc/elements/1.1/"
   xmlns:cc="http://creativecommons.org/ns#"
   xmlns:rdf="http://www.w3.org/1999/02/22-rdf-syntax-ns#"
   xmlns:svg="http://www.w3.org/2000/svg"
   xmlns="http://www.w3.org/2000/svg"
   xmlns:sodipodi="http://sodipodi.sourceforge.net/DTD/sodipodi-0.dtd"
   xmlns:inkscape="http://www.inkscape.org/namespaces/inkscape"
   width="210mm"
   height="297mm"
   viewBox="0 0 210 297"
   version="1.1"
   id="svg2446"
   inkscape:version="1.0.2-2 (e86c870879, 2021-01-15)"
   sodipodi:docname="vanilla.svg">
  <defs
     id="defs2440" />
  <sodipodi:namedview
     id="base"
     pagecolor="#ffffff"
     bordercolor="#666666"
     borderopacity="1.0"
     inkscape:pageopacity="0.0"
     inkscape:pageshadow="2"
     inkscape:zoom="0.35"
     inkscape:cx="400"
     inkscape:cy="560"
     inkscape:document-units="mm"
     inkscape:current-layer="layer1"
     inkscape:document-rotation="0"
     showgrid="false"
     inkscape:window-width="1267"
     inkscape:window-height="1040"
     inkscape:window-x="26"
     inkscape:window-y="0"
     inkscape:window-maximized="0" />
  <metadata
     id="metadata2443">
    <rdf:RDF>
      <cc:Work
         rdf:about="">
        <dc:format>image/svg+xml</dc:format>
        <dc:type
           rdf:resource="http://purl.org/dc/dcmitype/StillImage" />
        <dc:title></dc:title>
      </cc:Work>
    </rdf:RDF>
  </metadata>
  <g
     inkscape:label="Layer 1"
     inkscape:groupmode="layer"
     id="layer1">
    <path
       style="fill:none;stroke:#000000;stroke-width:2.7219;stroke-linecap:round;stroke-linejoin:miter;stroke-miterlimit:4;stroke-dasharray:none;stroke-opacity:1"
       d="m 46.678933,152.44956 c -2.77783,-4.42652 -14.484245,-0.32769 -9.159056,9.53158 6.262902,11.59534 98.459773,-42.59432 133.460433,-38.12638"
       id="path2293"
       sodipodi:nodetypes="csc" />
    <path
       style="fill:none;stroke:#000000;stroke-width:1.52861;stroke-linecap:round;stroke-linejoin:miter;stroke-miterlimit:4;stroke-dasharray:none;stroke-opacity:1"
       d="M 40.943756,176.82762 C 48.048907,190.1748 120.78156,114.40341 152.05332,110.65335"
       id="path2293-4"
       sodipodi:nodetypes="cc" />
    <path
       style="fill:none;stroke:#000000;stroke-width:1.24715;stroke-linecap:round;stroke-linejoin:miter;stroke-miterlimit:4;stroke-dasharray:none;stroke-opacity:1"
       d="m 147.61102,134.54564 c 0.67522,-4.02947 9.97653,-4.02731 9.07182,4.72255 -1.06404,10.29063 -80.535167,-6.07973 -103.600115,6.3961"
       id="path2293-8"
       sodipodi:nodetypes="csc" />
    <path
       style="fill:#ffffff;fill-opacity:1;stroke:#000000;stroke-width:0.86977px;stroke-linecap:butt;stroke-linejoin:miter;stroke-opacity:1"
       d="m 95.653055,141.42863 c -7.777636,3.17988 -28.135769,-19.59353 -31.035596,-21.14826 -3.51011,-1.88189 18.213379,-3.8722 30.452789,2.68077 12.239412,6.55297 0.582807,18.46749 0.582807,18.46749 z"
       id="path2324"
       sodipodi:nodetypes="cssc" />
    <path
       style="fill:#ffffff;fill-opacity:1;stroke:#000000;stroke-width:0.86977px;stroke-linecap:butt;stroke-linejoin:miter;stroke-opacity:1"
       d="m 98.643373,133.15044 c 0,0 -4.846789,-25.28683 4.295067,-38.635146 0,0 15.73638,25.467226 11.21946,36.786016 -3.20508,8.03146 -15.514527,1.84913 -15.514527,1.84913 z"
       id="path2326"
       sodipodi:nodetypes="cssc" />
    <path
       style="fill:#ffffff;fill-opacity:1;stroke:#000000;stroke-width:0.86977px;stroke-linecap:butt;stroke-linejoin:miter;stroke-opacity:1"
       d="m 107.89246,130.70558 c 0,0 12.7395,-16.37845 34.0955,-10.42521 0,0 -10.18538,4.39147 -24.62452,24.12687 -12.53081,17.12709 -9.47098,-13.70166 -9.47098,-13.70166 z"
       id="path2328"
       sodipodi:nodetypes="cssc" />
    <path
       style="fill:#ffffff;fill-opacity:1;stroke:#000000;stroke-width:0.86977px;stroke-linecap:butt;stroke-linejoin:miter;stroke-opacity:1"
       d="m 103.81268,146.19442 c 0,0 1.11545,13.6217 29.14144,25.91404 0,0 -6.67127,-29.19802 -17.48331,-35.22597 z"
       id="path2330"
       sodipodi:nodetypes="cscc" />
    <path
       style="fill:#ffffff;fill-opacity:1;stroke:#000000;stroke-width:0.86977px;stroke-linecap:butt;stroke-linejoin:miter;stroke-opacity:1"
       d="m 94.487408,138.44998 c -13.408503,13.06339 -14.764984,22.33969 -20.399005,31.8713 0,0 25.115439,-9.34802 29.724277,-24.12686 z"
       id="path2332"
       sodipodi:nodetypes="cccc" />
    <path
       style="fill:#ffffff;stroke:#000000;stroke-width:0.869763px;stroke-linecap:butt;stroke-linejoin:miter;stroke-opacity:1"
       d="m 95.653055,141.42863 c 0,0 -7.431054,-3.87237 -4.808323,-8.63806 3.824307,-6.94899 11.219468,-4.61683 12.676548,-2.68076 1.45705,1.9361 0,0 0,0 0,0 7.75549,-5.94341 12.67651,1.04248 2.6227,3.72317 1.60419,9.0067 -4.80832,10.87184 -1.15563,0.33614 4.95403,4.6168 -0.43714,5.80824 -5.39116,1.19144 -7.13965,-1.63822 -7.13965,-1.63822 0,0 -2.18562,3.57429 -7.722487,1.63822 -5.536865,-1.93607 -0.437138,-6.40374 -0.437138,-6.40374 z"
       id="path2358"
       sodipodi:nodetypes="csscssscsc" />
    <path
       style="fill:#ffffff;stroke:#000000;stroke-width:0.86977px;stroke-linecap:butt;stroke-linejoin:miter;stroke-opacity:1"
       d="m 103.52128,130.10984 c 0,0 -7.285353,8.19125 -4.225517,10.4252 3.059867,2.23399 4.954057,-1.34036 4.954057,-1.34036 0,0 2.76843,4.31901 4.66262,0.14889 1.89419,-4.17005 -5.39116,-9.23376 -5.39116,-9.23376 z"
       id="path2360"
       sodipodi:nodetypes="cscscc" />
    <path
       style="fill:#000000;stroke:#000000;stroke-width:0.86977px;stroke-linecap:butt;stroke-linejoin:miter;stroke-opacity:1"
       d="m 104.24982,139.19468 -0.72854,-9.08484 c 0,0 6.70251,5.95726 5.24543,9.38269 -1.45705,3.42542 -4.51689,-0.29779 -4.51689,-0.29779 z"
       id="path2364" />
    <path
       style="fill:#000000;stroke:none;stroke-width:0.68945px;stroke-linecap:butt;stroke-linejoin:miter;stroke-opacity:1"
       d="m 103.29728,128.24606 -0.44026,-29.607641 c 0,0 7.59457,12.950651 8.03487,15.180551 0.44026,2.22983 2.1919,9.54567 2.1919,9.54567 0,0 -2.64163,2.28132 -2.75169,3.14848 -0.1099,0.8672 -3.35007,-0.79617 -7.03482,1.73294"
       id="path2366"
       sodipodi:nodetypes="ccsccc" />
    <path
       style="fill:#000000;stroke:none;stroke-width:0.86977px;stroke-linecap:butt;stroke-linejoin:miter;stroke-opacity:1"
       d="m 118.52912,133.38634 c 0,0 1.74845,-5.8083 7.86819,-7.89336 2.92902,-0.99795 10.78232,-4.76579 10.78232,-4.76579 0,0 -10.92806,-1.34037 -16.61062,2.38291 -5.6826,3.72328 -6.26541,4.61686 -6.26541,4.61686 0,0 4.22552,3.42539 4.22552,5.65938 z"
       id="path2368"
       sodipodi:nodetypes="cscscc" />
    <path
       style="fill:#000000;stroke:none;stroke-width:0.86977px;stroke-linecap:butt;stroke-linejoin:miter;stroke-opacity:1"
       d="m 114.59501,143.66261 15.00784,24.12683 c 0,0 -12.82225,-7.29762 -16.90203,-10.87197 -4.07981,-3.57435 -5.6826,-7.59548 -5.6826,-7.59548 0,0 5.974,0.74466 7.13968,-0.44678 1.16565,-1.19147 1.01995,-4.31901 0.43711,-5.2126 z"
       id="path2370" />
    <path
       style="fill:#000000;fill-opacity:1;stroke:none;stroke-width:0.86977px;stroke-linecap:butt;stroke-linejoin:miter;stroke-opacity:1"
       d="m 93.758866,148.13055 -14.425002,16.97816 c 0,0 11.365166,-6.25511 14.425002,-9.08483 3.059869,-2.82969 6.411144,-5.95723 6.411144,-5.95723 0,0 -4.662657,1.34037 -6.411144,-1.9361 z"
       id="path2372" />
    <path
       style="fill:#000000;fill-opacity:1;stroke:none;stroke-width:0.86977px;stroke-linecap:butt;stroke-linejoin:miter;stroke-opacity:1"
       d="m 67.385859,120.42933 23.750276,9.38269 c 0,0 -3.496941,1.48926 -3.205537,3.27644 0.728541,4.46797 0.728541,4.46797 0.728541,4.46797 0,0 -14.13363,-9.82947 -21.27328,-17.1271 z"
       id="path2374"
       sodipodi:nodetypes="ccscc" />
    <path
       style="fill:none;stroke:#000000;stroke-width:0.86977px;stroke-linecap:butt;stroke-linejoin:miter;stroke-opacity:1"
       d="m 104.24982,139.19474 -0.43714,6.99968 z"
       id="path2380" />
    <path
       style="fill:#000000;stroke:none;stroke-width:0.151749"
       d="m 98.992687,128.36677 c -0.323529,0.31905 0.218504,1.08625 0.171681,1.55144 0.371945,1.60159 0.506006,3.32964 1.020332,4.85851 0.79644,-0.58403 1.16422,-1.75314 1.8209,-2.53383 0.44595,-0.81512 1.3134,-1.52545 1.51558,-2.41857 -1.29733,-0.96361 -2.97764,-1.32491 -4.528591,-1.45755 z"
       id="path2394" />
    <path
       style="fill:#000000;stroke:none;stroke-width:0.178284"
       d="m 110.84845,128.04609 c -0.46543,0.47459 -0.31996,1.4946 -0.56942,2.14694 -0.35077,1.99007 -0.82296,4.04017 -1.04855,6.00515 2.37314,-1.52352 4.61475,-3.25277 6.93148,-4.86317 -1.42622,-1.53588 -3.14379,-3.02906 -5.31351,-3.28892 z"
       id="path2396" />
    <path
       style="fill:#000000;stroke:none;stroke-width:0.169465"
       d="m 107.91994,140.73043 c -0.51986,0.0771 -1.3079,0.31407 -0.53238,0.91356 1.42321,1.94079 2.66835,4.10548 4.33604,5.78943 1.09662,0.18943 2.02347,-1.39082 1.19446,-2.38132 -0.62551,-1.07691 -1.18646,-2.31302 -1.96797,-3.21016 -1.0034,-0.3614 -1.968,-1.01902 -3.03015,-1.11151 z"
       id="path2402" />
    <path
       style="fill:#000000;stroke:none;stroke-width:0.165453"
       d="m 103.8955,140.44039 c -1.82109,2.51548 -3.66469,5.07849 -5.256322,7.76035 1.078083,0.35728 2.329862,-0.23862 3.357322,-0.67988 1.02593,-0.55446 1.92992,-1.59272 1.75131,-2.97121 -0.002,-1.3624 0.24289,-2.77588 0.18502,-4.10414 -0.01,-0.007 -0.026,-0.0166 -0.0374,-0.003 z"
       id="path2404" />
    <path
       style="fill:#000000;stroke:none;stroke-width:0.165945"
       d="m 90.533136,134.0304 c -0.601081,2.48597 1.454547,4.66259 3.246182,6.11283 0.742296,0.44416 1.46557,1.28729 2.345764,1.33558 0.872618,-0.28416 1.71181,-0.65831 2.564138,-0.99598 -0.06145,-1.01114 0.06796,-2.05984 0.234111,-3.02262 -2.510552,-1.26688 -5.217042,-2.22013 -7.841041,-3.26998 -0.181436,-0.0525 -0.359426,-0.14723 -0.549284,-0.15986 z"
       id="path2406" />
  </g>
</svg>
