<svg xmlns="http://www.w3.org/2000/svg" width="70.716" height="70.717" viewBox="0 0 70.716 70.717">
  <path id="iconfinder_Circled_Youtube_svg_5279120" d="M35.358,0A35.358,35.358,0,1,1,0,35.358,35.375,35.375,0,0,1,35.358,0ZM56.534,24.72a5.535,5.535,0,0,0-3.907-3.907c-3.447-.924-17.268-.924-17.268-.924s-13.821,0-17.268.924a5.535,5.535,0,0,0-3.907,3.907c-.923,3.447-.923,10.638-.923,10.638s0,7.191.923,10.638A5.536,5.536,0,0,0,18.09,49.9c3.447.923,17.268.923,17.268.923s13.821,0,17.268-.923A5.535,5.535,0,0,0,56.534,46c.923-3.446.923-10.638.923-10.638s0-7.192-.923-10.638Zm-25.6,17.268V28.729l11.483,6.63-11.483,6.63Z" fill="#fff" fill-rule="evenodd"/>
</svg>
