<?xml version="1.0" encoding="UTF-8" standalone="no"?>
<svg
   xmlns:dc="http://purl.org/dc/elements/1.1/"
   xmlns:cc="http://creativecommons.org/ns#"
   xmlns:rdf="http://www.w3.org/1999/02/22-rdf-syntax-ns#"
   xmlns:svg="http://www.w3.org/2000/svg"
   xmlns="http://www.w3.org/2000/svg"
   xmlns:sodipodi="http://sodipodi.sourceforge.net/DTD/sodipodi-0.dtd"
   xmlns:inkscape="http://www.inkscape.org/namespaces/inkscape"
   width="210mm"
   height="297mm"
   viewBox="0 0 210 297"
   version="1.1"
   id="svg5561"
   inkscape:version="1.0.2-2 (e86c870879, 2021-01-15)"
   sodipodi:docname="bees.svg">
  <defs
     id="defs5555" />
  <sodipodi:namedview
     id="base"
     pagecolor="#ffffff"
     bordercolor="#666666"
     borderopacity="1.0"
     inkscape:pageopacity="0.0"
     inkscape:pageshadow="2"
     inkscape:zoom="0.35"
     inkscape:cx="400"
     inkscape:cy="560"
     inkscape:document-units="mm"
     inkscape:current-layer="layer1"
     inkscape:document-rotation="0"
     showgrid="false"
     inkscape:window-width="1267"
     inkscape:window-height="1040"
     inkscape:window-x="104"
     inkscape:window-y="0"
     inkscape:window-maximized="0" />
  <metadata
     id="metadata5558">
    <rdf:RDF>
      <cc:Work
         rdf:about="">
        <dc:format>image/svg+xml</dc:format>
        <dc:type
           rdf:resource="http://purl.org/dc/dcmitype/StillImage" />
        <dc:title></dc:title>
      </cc:Work>
    </rdf:RDF>
  </metadata>
  <g
     inkscape:label="Layer 1"
     inkscape:groupmode="layer"
     id="layer1">
    <path
       style="fill:#ffffff;stroke:#000000;stroke-width:0.621826;stroke-linecap:butt;stroke-linejoin:miter;stroke-miterlimit:4;stroke-dasharray:none;stroke-opacity:1"
       d="m 151.1126,99.927178 c 0,0 1.53421,-6.833802 8.37012,-10.043147 3.82072,-1.793761 6.98811,-3.620879 9.13387,-0.32941 2.34338,3.594644 -2.36695,6.746511 -2.36695,6.746511 0,0 -5.95722,5.833648 -15.13704,3.626046 z"
       id="path5268"
       sodipodi:nodetypes="csscc"
       inkscape:transform-center-x="19.668953"
       inkscape:transform-center-y="-8.4599789" />
    <path
       style="fill:#000000;stroke:none;stroke-width:0.0441062"
       d="m 156.67828,91.640676 c -0.45884,0.276836 -0.90816,0.593976 -1.28931,0.961355 -5.5e-4,0.164201 0.22074,0.289337 0.29561,0.438591 1.70149,2.158376 3.39807,4.322525 5.11397,6.469369 0.20017,0.05736 0.4065,-0.147066 0.60418,-0.186408 0.37059,-0.153196 0.7377,-0.313989 1.1007,-0.482903 -1.94433,-2.39481 -3.8579,-4.818064 -5.81135,-7.202384 l -0.007,6.43e-4 z"
       id="path5286"
       inkscape:transform-center-x="20.914197"
       inkscape:transform-center-y="-6.959821" />
    <path
       style="fill:#000000;stroke:none;stroke-width:0.0426173"
       d="m 154.40482,93.910239 c -0.31633,0.354124 -0.59278,0.742932 -0.88793,1.114943 1.14857,1.670239 2.25182,3.372595 3.43549,5.018148 0.15882,0.30741 0.52391,0.12092 0.78476,0.11262 0.30605,-0.046 0.61045,-0.10509 0.90725,-0.193777 -1.36959,-1.970938 -2.68928,-3.977604 -4.10104,-5.918648 -0.0429,-0.04342 -0.0779,-0.115639 -0.13853,-0.133269 z"
       id="path5288"
       inkscape:transform-center-x="23.779757"
       inkscape:transform-center-y="-5.4741147" />
    <path
       style="fill:#000000;stroke:none;stroke-width:0.0426173"
       d="m 151.78302,98.17124 c -0.30804,0.543036 -0.48043,1.161825 -0.67042,1.755938 -0.0494,0.273592 0.34999,0.215402 0.51298,0.278992 0.53207,0.0907 1.07886,0.22659 1.61107,0.23963 -0.45203,-0.77397 -0.94164,-1.541471 -1.45359,-2.274629 z"
       id="path5290"
       inkscape:transform-center-x="27.687873"
       inkscape:transform-center-y="-3.2305167" />
    <path
       style="fill:#000000;stroke:none;stroke-width:0.0441007"
       d="m 160.00233,89.614535 c -0.45884,0.276789 -1.62097,0.725263 -2.00214,1.092566 -5.6e-4,0.164166 0.22074,0.289268 0.2956,0.438478 1.7014,2.157798 3.76894,4.860825 5.48477,7.007089 0,0 1.22663,-0.801124 1.6255,-0.994893 -1.94425,-2.394163 -3.84446,-4.689832 -5.79783,-7.073509 v 0 z"
       id="path5286-7"
       sodipodi:nodetypes="cccccccc"
       inkscape:transform-center-x="18.157269"
       inkscape:transform-center-y="-8.6554027" />
    <path
       style="fill:#000000;stroke:none;stroke-width:0.0411709"
       d="m 162.58966,88.418092 c -0.58607,0.585895 -1.93913,0.366793 -1.76846,1.026709 1.58827,2.014736 3.8267,4.852358 5.42844,6.856331 0.18683,0.05354 0.4943,-0.577475 0.67879,-0.614207 0.34593,-0.143003 0.61081,-0.518261 0.94965,-0.675934 -1.81496,-2.235437 -3.01225,-3.855483 -4.83572,-6.081125 v 0 z"
       id="path5286-2"
       sodipodi:nodetypes="cccccccc"
       inkscape:transform-center-x="15.518141"
       inkscape:transform-center-y="-10.177782" />
    <path
       style="fill:#ffffff;fill-opacity:1;stroke:#000000;stroke-width:0.362143;stroke-linecap:butt;stroke-linejoin:miter;stroke-miterlimit:4;stroke-dasharray:none;stroke-opacity:1"
       d="m 162.18581,89.613779 c 0,0 -7.8403,-5.283041 -10.28372,-2.883927 -2.44342,2.399116 0.0187,4.818732 0.0187,4.818732 0,0 1.48933,1.540864 5.22504,1.095528 3.73571,-0.445345 7.86762,-1.119484 7.86762,-1.119484 z"
       id="path5321"
       sodipodi:nodetypes="cscscc"
       inkscape:transform-center-x="21.943196"
       inkscape:transform-center-y="-13.124042" />
    <path
       style="fill:#ffffff;fill-opacity:1;stroke:#000000;stroke-width:0.362143;stroke-linecap:butt;stroke-linejoin:miter;stroke-miterlimit:4;stroke-dasharray:none;stroke-opacity:1"
       d="m 165.49119,95.030395 c 0,0 1.09259,9.284355 -2.06602,10.449355 -3.15863,1.165 -4.15956,-2.07558 -4.15956,-2.07558 0,0 -0.67228,-1.99319 1.36956,-5.151215 2.04181,-3.158021 4.37832,-6.728327 4.37832,-6.728327 z"
       id="path5321-8"
       sodipodi:nodetypes="cscscc"
       inkscape:transform-center-x="17.443633"
       inkscape:transform-center-y="-3.9104489" />
    <path
       style="fill:none;stroke:#000000;stroke-width:0.316218;stroke-linecap:round;stroke-linejoin:miter;stroke-miterlimit:4;stroke-dasharray:none;stroke-opacity:1"
       d="m 168.22438,88.968248 c 0,0 2.21502,-5.213896 0.0829,-6.17895 -2.13223,-0.965053 -3.31782,0.295641 -3.31782,0.295641"
       id="path5343"
       inkscape:transform-center-x="12.748782"
       inkscape:transform-center-y="-16.842092" />
    <path
       style="fill:none;stroke:#000000;stroke-width:0.327999;stroke-linecap:round;stroke-linejoin:miter;stroke-miterlimit:4;stroke-dasharray:none;stroke-opacity:1"
       d="m 168.22438,88.968248 c 0,0 5.24407,-2.448031 6.19049,-0.170402 0.94641,2.277631 -0.32779,3.567762 -0.32779,3.567762"
       id="path5343-1"
       inkscape:transform-center-x="8.365904"
       inkscape:transform-center-y="-12.442235" />
    <path
       style="fill:#ffffff;stroke:#000000;stroke-width:0.207598;stroke-linecap:butt;stroke-linejoin:miter;stroke-miterlimit:4;stroke-dasharray:none;stroke-opacity:1"
       d="m 192.10781,74.680075 c 0,0 -5.1753,-1.582774 -7.2472,-7.03786 -1.15803,-3.048935 -2.38004,-5.596475 0.28176,-7.056715 2.90699,-1.59476 5.05923,2.219258 5.05923,2.219258 0,0 4.14537,4.931948 1.90621,11.875317 z"
       id="path5268-1"
       sodipodi:nodetypes="csscc"
       inkscape:transform-center-x="-7.7642075"
       inkscape:transform-center-y="-2.7561205" />
    <path
       style="fill:#000000;stroke:none;stroke-width:0.034081"
       d="m 186.04962,69.905975 c 0.18637,0.369755 0.4044,0.734535 0.66509,1.049748 0.12649,0.01007 0.23592,-0.153089 0.35527,-0.202014 1.76275,-1.184391 3.52966,-2.364667 5.28434,-3.560869 0.056,-0.150846 -0.0894,-0.321816 -0.10829,-0.476402 -0.0963,-0.294516 -0.19865,-0.586781 -0.30752,-0.876388 -1.95914,1.357651 -3.9384,2.689907 -5.89,4.0552 l -2e-5,0.0042 z"
       id="path5286-8"
       inkscape:transform-center-x="-8.8121888"
       inkscape:transform-center-y="-1.7959013" />
    <path
       style="fill:#000000;stroke:none;stroke-width:0.0329305"
       d="m 187.66496,71.790693 c 0.25429,0.264489 0.53765,0.500283 0.80696,0.749505 1.35422,-0.787016 2.73054,-1.537207 4.06782,-2.352714 0.24613,-0.104333 0.12383,-0.396595 0.13266,-0.598056 -0.0177,-0.238507 -0.0452,-0.476486 -0.0961,-0.710367 -1.59885,0.939666 -3.22231,1.838794 -4.80063,2.812698 -0.0357,0.0307 -0.0935,0.05324 -0.11077,0.09886 z"
       id="path5288-3"
       inkscape:transform-center-x="-9.7843835"
       inkscape:transform-center-y="0.51561848" />
    <path
       style="fill:#000000;stroke:none;stroke-width:0.0329305"
       d="m 190.79421,74.060573 c 0.40033,0.26918 0.867,0.438289 1.3136,0.619498 0.20789,0.05413 0.18641,-0.257054 0.24508,-0.378869 0.10105,-0.404658 0.23779,-0.817962 0.2791,-1.227235 -0.62284,0.302898 -1.24288,0.635128 -1.83778,0.986578 z"
       id="path5290-0"
       inkscape:transform-center-x="-11.317501"
       inkscape:transform-center-y="3.6861393" />
    <path
       style="fill:#000000;stroke:none;stroke-width:0.0340768"
       d="m 184.68344,67.226078 c 0.18635,0.369742 0.46376,1.291444 0.72439,1.606646 0.12649,0.01007 0.23587,-0.153071 0.3552,-0.201971 1.7623,-1.184365 3.96614,-2.618853 5.7204,-3.815011 0,0 -0.54532,-0.992067 -0.67124,-1.310734 -1.95865,1.357599 -3.8388,2.687052 -5.78991,4.052308 v 0 z"
       id="path5286-7-9"
       sodipodi:nodetypes="cccccccc"
       inkscape:transform-center-x="-7.6878355"
       inkscape:transform-center-y="-4.0249218" />
    <path
       style="fill:#000000;stroke:none;stroke-width:0.0318129"
       d="m 183.91331,65.162451 c 0.41707,0.485907 0.16889,1.515554 0.68737,1.422753 1.64542,-1.105587 3.96301,-2.663855 5.60092,-3.780446 0.0523,-0.140759 -0.41593,-0.414712 -0.43342,-0.559011 -0.0899,-0.274923 -0.36351,-0.500983 -0.46512,-0.77131 -1.82877,1.267296 -3.14718,2.094786 -4.96888,3.369222 v 0 z"
       id="path5286-2-7"
       sodipodi:nodetypes="cccccccc"
       inkscape:transform-center-x="-6.6638934"
       inkscape:transform-center-y="-6.1612516" />
    <path
       style="fill:#ffffff;fill-opacity:1;stroke:#000000;stroke-width:0.360376;stroke-linecap:butt;stroke-linejoin:miter;stroke-miterlimit:4;stroke-dasharray:none;stroke-opacity:1"
       d="m 184.81088,65.543718 c 0,0 -4.53016,5.730977 -2.82498,7.754235 1.7052,2.02327 3.71382,0.268122 3.71382,0.268122 0,0 1.27451,-1.057138 1.15043,-3.961529 -0.12401,-2.904388 -0.4012,-6.127442 -0.4012,-6.127442 z"
       id="path5321-3"
       sodipodi:nodetypes="cscscc"
       inkscape:transform-center-x="-3.8348051"
       inkscape:transform-center-y="-1.3192713" />
    <path
       style="fill:#ffffff;fill-opacity:1;stroke:#000000;stroke-width:0.360376;stroke-linecap:butt;stroke-linejoin:miter;stroke-miterlimit:4;stroke-dasharray:none;stroke-opacity:1"
       d="m 189.17808,63.314608 c 0,0 7.21742,-0.297419 7.9298,2.204518 0.7124,2.501953 -1.84308,3.083129 -1.84308,3.083129 0,0 -1.57513,0.4011 -3.88857,-1.357252 -2.31344,-1.758323 -4.92728,-3.767899 -4.92728,-3.767899 z"
       id="path5321-8-9"
       sodipodi:nodetypes="cscscc"
       inkscape:transform-center-x="-11.445516"
       inkscape:transform-center-y="-4.221382" />
    <path
       style="fill:none;stroke:#000000;stroke-width:0.244342;stroke-linecap:round;stroke-linejoin:miter;stroke-miterlimit:4;stroke-dasharray:none;stroke-opacity:1"
       d="m 184.66758,60.853282 c 0,0 -3.88728,-2.012324 -4.75586,-0.426094 -0.86858,1.586268 0.0332,2.573654 0.0332,2.573654"
       id="path5343-8"
       inkscape:transform-center-x="-1.7052551"
       inkscape:transform-center-y="-8.7846256" />
    <path
       style="fill:none;stroke:#000000;stroke-width:0.253445;stroke-linecap:round;stroke-linejoin:miter;stroke-miterlimit:4;stroke-dasharray:none;stroke-opacity:1"
       d="m 184.66758,60.853282 c 0,0 -1.57865,-4.18396 0.2317,-4.779599 1.81036,-0.595622 2.72967,0.461761 2.72967,0.461761"
       id="path5343-1-5"
       inkscape:transform-center-x="-5.4338171"
       inkscape:transform-center-y="-11.8215" />
    <path
       style="fill:#ffffff;stroke:#000000;stroke-width:0.222702;stroke-linecap:butt;stroke-linejoin:miter;stroke-miterlimit:4;stroke-dasharray:none;stroke-opacity:1"
       d="m 98.833441,93.156236 c 0,0 1.485869,-5.61232 7.249219,-8.055572 3.22123,-1.365599 5.90236,-2.77934 7.57615,0.01466 1.82796,3.051267 -2.1729,5.513795 -2.1729,5.513795 0,0 -5.11809,4.644675 -12.652469,2.527191 z"
       id="path5268-7"
       sodipodi:nodetypes="csscc"
       inkscape:transform-center-x="6.3366651"
       inkscape:transform-center-y="-6.8008014" />
    <path
       style="fill:#000000;stroke:none;stroke-width:0.0365605"
       d="m 103.70439,86.467479 c -0.38878,0.214874 -0.77094,0.463417 -1.09821,0.755736 -0.006,0.136006 0.17374,0.246614 0.23106,0.372597 1.34146,1.841381 2.67867,3.687381 4.03244,5.519662 0.16399,0.05381 0.34134,-0.109031 0.50631,-0.135388 0.31183,-0.115144 0.62094,-0.23687 0.92694,-0.365367 -1.53519,-2.044863 -3.04397,-4.112318 -4.58703,-6.148783 l -0.005,1.84e-4 z"
       id="path5286-88"
       inkscape:transform-center-x="7.3674548"
       inkscape:transform-center-y="-5.6125396" />
    <path
       style="fill:#000000;stroke:none;stroke-width:0.0353264"
       d="m 101.7498,88.275871 c -0.27315,0.283367 -0.51439,0.59672 -0.77058,0.895579 0.89883,1.419645 1.75911,2.864463 2.68778,4.264768 0.12186,0.259611 0.43014,0.116681 0.64649,0.117988 0.25497,-0.02844 0.50895,-0.06785 0.7576,-0.131979 -1.07245,-1.675669 -2.10242,-3.379374 -3.21074,-5.031605 -0.0342,-0.0372 -0.0609,-0.0982 -0.11053,-0.11479 z"
       id="path5288-0"
       inkscape:transform-center-x="9.7967814"
       inkscape:transform-center-y="-4.4745963" />
    <path
       style="fill:#000000;stroke:none;stroke-width:0.0353264"
       d="m 99.444011,91.722847 c -0.27225,0.440115 -0.43451,0.947246 -0.61057,1.433389 -0.0496,0.22506 0.28328,0.189178 0.41621,0.247112 0.43787,0.09186 0.886519,0.221631 1.326949,0.249191 -0.35008,-0.655325 -0.731479,-1.30647 -1.132469,-1.929879 z"
       id="path5290-1"
       inkscape:transform-center-x="13.119414"
       inkscape:transform-center-y="-2.7210603" />
    <path
       style="fill:#000000;stroke:none;stroke-width:0.036556"
       d="m 106.52155,84.893778 c -0.38878,0.214845 -1.36551,0.549747 -1.69279,0.842004 -0.006,0.135989 0.1737,0.2466 0.23103,0.372511 1.34141,1.840896 2.96893,4.144939 4.32265,5.976736 0,0 1.04127,-0.624992 1.37776,-0.772937 -1.53513,-2.04432 -3.03686,-4.00568 -4.57987,-6.041607 v 0 z"
       id="path5286-7-8"
       sodipodi:nodetypes="cccccccc"
       inkscape:transform-center-x="5.0275298"
       inkscape:transform-center-y="-6.9192563" />
    <path
       style="fill:#000000;stroke:none;stroke-width:0.0341275"
       d="m 108.70234,83.984165 c -0.5039,0.466859 -1.61777,0.242805 -1.49716,0.794787 1.2522,1.718837 3.01705,4.139744 4.28073,5.850089 0.15309,0.05021 0.42761,-0.462773 0.58159,-0.487406 0.29098,-0.107689 0.52223,-0.410054 0.80788,-0.529995 -1.43302,-1.908789 -2.37379,-3.288379 -3.81417,-5.189314 v 0 z"
       id="path5286-2-6"
       sodipodi:nodetypes="cccccccc"
       inkscape:transform-center-x="2.7861891"
       inkscape:transform-center-y="-8.1003282" />
    <path
       style="fill:#ffffff;fill-opacity:1;stroke:#000000;stroke-width:0.360376;stroke-linecap:butt;stroke-linejoin:miter;stroke-miterlimit:4;stroke-dasharray:none;stroke-opacity:1"
       d="m 108.33019,84.961873 c 0,0 -6.32804,-4.622803 -8.427479,-2.712453 -2.09944,1.910354 -0.13613,3.992065 -0.13613,3.992065 0,0 1.185149,1.3232 4.293549,1.071877 3.10839,-0.251328 6.55216,-0.679707 6.55216,-0.679707 z"
       id="path5321-9"
       sodipodi:nodetypes="cscscc"
       inkscape:transform-center-x="8.0493034"
       inkscape:transform-center-y="-10.842736" />
    <path
       style="fill:#ffffff;fill-opacity:1;stroke:#000000;stroke-width:0.360376;stroke-linecap:butt;stroke-linejoin:miter;stroke-miterlimit:4;stroke-dasharray:none;stroke-opacity:1"
       d="m 110.89766,89.552598 c 0,0 0.61284,7.724839 -2.04018,8.590427 -2.65302,0.865603 -3.38013,-1.850141 -3.38013,-1.850141 0,0 -0.49414,-1.672169 1.29653,-4.223777 1.79067,-2.55161 3.83841,-5.435452 3.83841,-5.435452 z"
       id="path5321-8-1"
       sodipodi:nodetypes="cscscc"
       inkscape:transform-center-x="4.6350807"
       inkscape:transform-center-y="-2.9351688" />
    <path
       style="fill:none;stroke:#000000;stroke-width:0.262119;stroke-linecap:round;stroke-linejoin:miter;stroke-miterlimit:4;stroke-dasharray:none;stroke-opacity:1"
       d="m 113.3524,84.617196 c 0,0 1.99883,-4.249089 0.26302,-5.115567 -1.73581,-0.866476 -2.75753,0.140476 -2.75753,0.140476"
       id="path5343-10"
       inkscape:transform-center-x="0.23091868"
       inkscape:transform-center-y="-13.525135" />
    <path
       style="fill:none;stroke:#000000;stroke-width:0.271885;stroke-linecap:round;stroke-linejoin:miter;stroke-miterlimit:4;stroke-dasharray:none;stroke-opacity:1"
       d="m 113.3524,84.617196 c 0,0 4.4208,-1.862809 5.13308,0.05367 0.71226,1.916401 -0.38378,2.944944 -0.38378,2.944944"
       id="path5343-1-6"
       inkscape:transform-center-x="-3.2173003"
       inkscape:transform-center-y="-9.6982762" />
    <path
       style="fill:#ffffff;stroke:#000000;stroke-width:0.621826;stroke-linecap:butt;stroke-linejoin:miter;stroke-miterlimit:4;stroke-dasharray:none;stroke-opacity:1"
       d="m 115.14834,54.147185 c 0,0 5.70422,-4.064049 12.93639,-1.8903 4.0422,1.21496 7.62023,1.968931 7.02065,5.852056 -0.6548,4.240771 -6.26598,3.443152 -6.26598,3.443152 0,0 -8.32978,0.366763 -13.69106,-7.404908 z"
       id="path5268-2"
       sodipodi:nodetypes="csscc" />
    <path
       style="fill:#000000;stroke:none;stroke-width:0.0441062"
       d="m 124.824,51.692708 c -0.52641,-0.100216 -1.07269,-0.163971 -1.60172,-0.144892 -0.11003,0.121804 -0.0288,0.362802 -0.0727,0.523906 -0.17395,2.742891 -0.35543,5.486778 -0.51094,8.230702 0.11074,0.176302 0.40101,0.161374 0.57428,0.264493 0.37799,0.133887 0.75887,0.258678 1.14191,0.375225 0.15097,-3.081044 0.34386,-6.162698 0.48102,-9.242002 l -0.005,-0.0039 z"
       id="path5286-1" />
    <path
       style="fill:#000000;stroke:none;stroke-width:0.0426173"
       d="m 121.61621,51.864901 c -0.47194,0.05245 -0.93727,0.157541 -1.4054,0.2374 -0.25978,2.010344 -0.57475,4.014317 -0.79192,6.029706 -0.087,0.334862 0.30936,0.439765 0.50912,0.607727 0.25855,0.170119 0.52465,0.329289 0.80488,0.461307 0.29595,-2.38176 0.65292,-4.756818 0.89752,-7.144474 -0.003,-0.06089 0.0191,-0.138074 -0.0141,-0.191673 z"
       id="path5288-36" />
    <path
       style="fill:#000000;stroke:none;stroke-width:0.0426173"
       d="m 116.81968,53.287307 c -0.59197,0.198357 -1.13331,0.544276 -1.67134,0.859878 -0.21946,0.170684 0.11679,0.394001 0.1957,0.550166 0.33561,0.422707 0.65202,0.888893 1.03958,1.253875 0.18011,-0.87801 0.32789,-1.776322 0.43614,-2.663947 z"
       id="path5290-2" />
    <path
       style="fill:#000000;stroke:none;stroke-width:0.0441007"
       d="m 128.65153,52.403085 c -0.52641,-0.100217 -1.69108,-0.542047 -2.22006,-0.523037 -0.10999,0.121803 -0.0288,0.362736 -0.0726,0.523812 -0.17363,2.742389 -0.43863,6.135138 -0.59382,8.878578 0,0 1.4481,0.222356 1.87444,0.344348 0.15059,-3.080498 0.26825,-6.058255 0.40507,-9.137029 v 0 z"
       id="path5286-7-5"
       sodipodi:nodetypes="cccccccc" />
    <path
       style="fill:#000000;stroke:none;stroke-width:0.0411709"
       d="m 131.37664,53.239441 c -0.82748,0.04499 -1.68865,-1.02136 -2.0021,-0.416076 -0.16239,2.56034 -0.38997,6.167398 -0.53514,8.728728 0.10342,0.164501 0.75355,-0.09995 0.91543,-0.0042 0.35299,0.124542 0.80074,0.02187 1.15829,0.130672 0.14091,-2.876004 0.33091,-4.881492 0.45895,-7.755883 v 0 z"
       id="path5286-2-60"
       sodipodi:nodetypes="cccccccc" />
    <path
       style="fill:#ffffff;fill-opacity:1;stroke:#000000;stroke-width:0.362143;stroke-linecap:butt;stroke-linejoin:miter;stroke-miterlimit:4;stroke-dasharray:none;stroke-opacity:1"
       d="m 130.27777,53.860111 c 0,0 -2.31091,-9.167348 -5.73172,-9.012167 -3.42082,0.155174 -3.2028,3.600364 -3.2028,3.600364 0,0 0.0803,2.141461 3.15906,4.303658 3.07877,2.162201 6.60525,4.418518 6.60525,4.418518 z"
       id="path5321-0"
       sodipodi:nodetypes="cscscc" />
    <path
       style="fill:#ffffff;fill-opacity:1;stroke:#000000;stroke-width:0.362143;stroke-linecap:butt;stroke-linejoin:miter;stroke-miterlimit:4;stroke-dasharray:none;stroke-opacity:1"
       d="m 129.12297,60.099656 c 0,0 -5.38427,7.642156 -8.51376,6.401028 -3.12948,-1.241165 -1.7115,-4.322108 -1.7115,-4.322108 0,0 0.83001,-1.932837 4.45841,-2.921171 3.62841,-0.988333 7.75144,-2.086921 7.75144,-2.086921 z"
       id="path5321-8-0"
       sodipodi:nodetypes="cscscc" />
    <path
       style="fill:none;stroke:#000000;stroke-width:0.316218;stroke-linecap:round;stroke-linejoin:miter;stroke-miterlimit:4;stroke-dasharray:none;stroke-opacity:1"
       d="m 135.2048,57.410535 c 0,0 5.12976,-2.403446 4.1864,-4.545358 -0.94336,-2.141927 -2.66769,-1.994705 -2.66769,-1.994705"
       id="path5343-82" />
    <path
       style="fill:none;stroke:#000000;stroke-width:0.327999;stroke-linecap:round;stroke-linejoin:miter;stroke-miterlimit:4;stroke-dasharray:none;stroke-opacity:1"
       d="m 135.2048,57.410535 c 0,0 5.53874,1.677952 4.72296,4.00559 -0.81578,2.327601 -2.62572,2.437622 -2.62572,2.437622"
       id="path5343-1-3" />
    <path
       style="fill:none;stroke:#000000;stroke-width:0.467399;stroke-linecap:butt;stroke-linejoin:miter;stroke-miterlimit:4;stroke-dasharray:1.86959, 3.73919;stroke-dashoffset:0;stroke-opacity:1"
       d="m 192.10781,74.680075 c 0,0 9.95881,39.277455 -23.92258,50.676795 -33.88137,11.39934 -44.66992,-27.983037 -76.509323,-13.92481"
       id="path5493"
       sodipodi:nodetypes="csc" />
    <path
       style="fill:none;stroke:#000000;stroke-width:0.467399;stroke-linecap:butt;stroke-linejoin:miter;stroke-miterlimit:4;stroke-dasharray:1.86959, 3.73919;stroke-dashoffset:0;stroke-opacity:1"
       d="m 151.1126,99.927174 c 0,0 -66.047561,37.145686 -88.05462,18.621756 C 41.050915,100.025 53.400203,77.067989 53.400203,77.067989 c 0,0 13.932529,-22.798681 -15.832418,-28.181704"
       id="path5495" />
    <path
       style="fill:none;stroke:#000000;stroke-width:0.467399;stroke-linecap:butt;stroke-linejoin:miter;stroke-miterlimit:4;stroke-dasharray:2.8044, 2.8044;stroke-dashoffset:0;stroke-opacity:1"
       d="m 115.14834,54.147181 c 0,0 -17.485019,15.82325 -31.367072,-0.745661 C 69.899206,36.832604 45.539122,37.206118 37.567785,48.886285 29.596446,60.566454 47.060976,69.074812 29.148638,76.687559 11.236302,84.300298 13.027535,74.000705 13.027535,74.000705"
       id="path5497" />
    <path
       style="fill:none;stroke:#000000;stroke-width:0.467399;stroke-linecap:butt;stroke-linejoin:miter;stroke-miterlimit:4;stroke-dasharray:3.73919, 3.73919;stroke-dashoffset:0;stroke-opacity:1"
       d="m 98.833441,93.15631 c 0,0 -14.156558,-10.199437 -26.695191,13.0866 -11.53507,21.42228 -12.090832,-13.434254 -41.646187,9.40398"
       id="path5499"
       sodipodi:nodetypes="csc" />
  </g>
</svg>
