<svg xmlns="http://www.w3.org/2000/svg" width="112.072" height="90.149" viewBox="0 0 112.072 90.149">
  <path id="Icon_simple-coffeescript" data-name="Icon simple-coffeescript" d="M21.681,27.445C31.485,29.919,44,31.18,59.075,31.18c15.406,0,27.637-1.26,37.395-3.735,10.411-2.428,15.406-5.7,15.406-8.777,0-2.194-2.241-4.342-6.3-5.976a3.41,3.41,0,0,1,1.634,2.754c0,3.128-4.715,5.7-14.192,7.843A158.829,158.829,0,0,1,59.4,26.558a164.133,164.133,0,0,1-33.333-3.175C16.966,21.142,12.2,18.715,12.2,15.54c0-1.307.607-2.428,2.428-3.735C8.936,14,5.855,15.867,5.855,18.668c.327,3.175,5.415,6.349,15.826,8.777Zm21.9-10.084c10.6-.934,13.679-7.75,26.1-8.87,6.116-.467,9.991.747,10.411,2.894.373,2.007-2.661,3.361-6.349,3.641-5.089.514-7.189-1.307-7.61-3.035-3.781.42-4.388,2.007-4.2,3.128.42,2.148,5,4.3,12.838,3.548,8.87-.7,11.858-4.2,11.111-7.7-.934-4.575-7.75-8.4-19.981-7.236C50.205,5.129,50.3,12.412,39.608,13.3c-4.388.42-6.816-.607-7.236-2.334-.28-1.727,1.867-2.568,4.388-2.754a13.194,13.194,0,0,1,6.536.934c.98-.514,1.307-1.027,1.214-1.634-.467-1.634-3.688-2.334-7.75-2.054-7.936.7-7.936,4.248-7.656,5.836.794,4.062,6.909,6.769,14.472,6.069ZM96.89,35.288c-9.8,2.288-22.315,3.781-37.395,3.781a176.289,176.289,0,0,1-37.721-3.735C13,33.094,8.329,30.619,6.695,28.052A87.887,87.887,0,0,0,10.85,44.625a22.955,22.955,0,0,0-6.069,5.462A21.1,21.1,0,0,0,.019,64.559,16.807,16.807,0,0,0,6.648,76.791a15.891,15.891,0,0,0,13.445,3.175A45.172,45.172,0,0,0,26.116,78,16.874,16.874,0,0,1,15.1,73.943a16.573,16.573,0,0,1-6.956-11.3A15.063,15.063,0,0,1,10.616,50.6a13.8,13.8,0,0,1,1.821-1.867,106.65,106.65,0,0,0,4.575,9.9c3.781,5.742,7.563,10.738,11.344,16.153a41.287,41.287,0,0,1,3.455,9.43,18.207,18.207,0,0,0,10.411,7A43.114,43.114,0,0,0,58.935,93.6h.607A47.619,47.619,0,0,0,76.769,91.17a19.514,19.514,0,0,0,10.084-6.956h.327a39.91,39.91,0,0,1,3.128-9.43c3.735-5.462,7.563-10.411,11.3-16.153A98.038,98.038,0,0,0,112.063,28.1C110.055,30.9,105.34,33.374,96.89,35.288Z" transform="translate(0.009 -3.517)" fill="#fff"/>
</svg>
