<?xml version="1.0" encoding="UTF-8" standalone="no"?>
<svg
   xmlns:dc="http://purl.org/dc/elements/1.1/"
   xmlns:cc="http://creativecommons.org/ns#"
   xmlns:rdf="http://www.w3.org/1999/02/22-rdf-syntax-ns#"
   xmlns:svg="http://www.w3.org/2000/svg"
   xmlns="http://www.w3.org/2000/svg"
   xmlns:sodipodi="http://sodipodi.sourceforge.net/DTD/sodipodi-0.dtd"
   xmlns:inkscape="http://www.inkscape.org/namespaces/inkscape"
   width="150mm"
   height="150mm"
   viewBox="0 0 150 150"
   version="1.1"
   id="svg5614"
   inkscape:version="1.0.2-2 (e86c870879, 2021-01-15)"
   sodipodi:docname="cream.svg">
  <defs
     id="defs5608" />
  <sodipodi:namedview
     id="base"
     pagecolor="#ffffff"
     bordercolor="#666666"
     borderopacity="1.0"
     inkscape:pageopacity="0.0"
     inkscape:pageshadow="2"
     inkscape:zoom="0.7"
     inkscape:cx="339.28688"
     inkscape:cy="469.1484"
     inkscape:document-units="mm"
     inkscape:current-layer="layer1"
     inkscape:document-rotation="0"
     showgrid="false"
     inkscape:window-width="1267"
     inkscape:window-height="1040"
     inkscape:window-x="104"
     inkscape:window-y="0"
     inkscape:window-maximized="0" />
  <metadata
     id="metadata5611">
    <rdf:RDF>
      <cc:Work
         rdf:about="">
        <dc:format>image/svg+xml</dc:format>
        <dc:type
           rdf:resource="http://purl.org/dc/dcmitype/StillImage" />
        <dc:title></dc:title>
      </cc:Work>
    </rdf:RDF>
  </metadata>
  <g
     inkscape:label="Layer 1"
     inkscape:groupmode="layer"
     id="layer1">
    <path
       style="fill:#ffffff;stroke:#000000;stroke-width:3.33287px;stroke-linecap:butt;stroke-linejoin:miter;stroke-opacity:1"
       d="m 12.215476,90.49021 c 0,0 6.689859,48.86868 61.44666,48.22574 53.772844,-0.6312 64.667674,-48.54735 64.667674,-48.54735 z"
       id="path5542"
       sodipodi:nodetypes="cscc" />
    <path
       style="fill:#ffffff;stroke:#000000;stroke-width:2.0938;stroke-linecap:butt;stroke-linejoin:miter;stroke-miterlimit:4;stroke-dasharray:none;stroke-opacity:1"
       d="m 11.653888,88.30576 c 0,0 -11.23319981,-14.1106 -1.8721338,-27.90044 9.3610648,-13.789848 17.6520778,-7.055303 17.6520778,-7.055303 0,0 31.870775,32.540143 95.749588,15.072723 12.33793,-3.37372 20.20539,19.25325 15.02405,19.88302 z"
       id="path5558"
       sodipodi:nodetypes="cscscc" />
    <path
       style="fill:#ffffff;stroke:#000000;stroke-width:2.0938;stroke-linecap:butt;stroke-linejoin:miter;stroke-miterlimit:4;stroke-dasharray:none;stroke-opacity:1"
       d="m 27.433832,53.350017 c 0,0 0.406929,-27.925922 17.117313,-16.996812 11.768096,7.696807 15.761756,17.215085 68.201415,8.338172 22.73398,-3.848332 9.89596,22.769243 9.89596,22.769243 0,0 -60.712875,19.24152 -95.214688,-14.110603"
       id="path5560"
       sodipodi:nodetypes="csscc" />
    <path
       style="fill:#ffffff;fill-opacity:1;stroke:#000000;stroke-width:2.0938;stroke-linecap:butt;stroke-linejoin:miter;stroke-miterlimit:4;stroke-dasharray:none;stroke-opacity:1"
       d="m 46.690728,37.36914 c 0,0 2.674609,-11.243852 11.233331,-15.741421 8.558591,-4.497712 13.105207,-15.0990535 13.105207,-15.0990535 0,0 3.74453,0 6.15169,6.7462815 2.40703,6.746426 4.01185,15.420238 17.38463,14.456545 13.372784,-0.963264 17.117184,9.637648 17.384764,10.922525 l 1.36995,5.544421 c 0,0 -49.512913,9.23345 -66.630227,-6.829298 z"
       id="path5562"
       sodipodi:nodetypes="cscssccsc" />
    <path
       style="fill:#000000;stroke:none;stroke-width:3.62081px;stroke-linecap:butt;stroke-linejoin:miter;stroke-opacity:1"
       d="m 27.433832,53.350017 c 0,0 55.452374,32.603403 82.676968,6.093183 25.31974,-24.655407 13.58226,6.54762 12.5372,8.01742 0,0.93034 -62.675951,19.20974 -95.214691,-14.110603 z"
       id="path5568"
       sodipodi:nodetypes="csccc" />
    <path
       style="fill:#000000;stroke:none;stroke-width:4.82198px;stroke-linecap:butt;stroke-linejoin:miter;stroke-opacity:1"
       d="m 46.690728,37.36914 c 0,0 16.010624,10.10783 26.201378,4.550098 23.78297,-12.97057 40.428194,2.2792 40.428194,2.2792 0,0 -49.955955,8.921427 -66.629572,-6.829298 z"
       id="path5570"
       sodipodi:nodetypes="cscc" />
    <path
       style="fill:#000000;fill-opacity:1;stroke:none;stroke-width:3.62081px;stroke-linecap:butt;stroke-linejoin:miter;stroke-opacity:1"
       d="M 19.22813,52.067431 C -1.7894198,69.68042 15.19731,87.95824 66.42848,89.26788 116.11516,90.53744 11.653888,88.30605 11.653888,88.30605 2.8549342,74.70241 7.8105692,75.15757 6.6217092,67.4609 5.2183932,58.37459 14.647236,55.783511 19.22813,52.067431 Z"
       id="path5586"
       sodipodi:nodetypes="cscsc" />
    <path
       style="fill:#000000;fill-opacity:1;stroke:none;stroke-width:3.77978px;stroke-linecap:butt;stroke-linejoin:miter;stroke-opacity:1"
       d="m 42.16419,94.70331 90.43598,0.0389 c 0,0 -21.71758,40.36217 -59.362394,39.42318 C 35.592839,133.22668 138.40391,102.84087 42.16419,94.70331 Z"
       id="path5588"
       sodipodi:nodetypes="ccccc" />
  </g>
</svg>
