<?xml version="1.0" encoding="UTF-8" standalone="no"?>
<svg
   xmlns:dc="http://purl.org/dc/elements/1.1/"
   xmlns:cc="http://creativecommons.org/ns#"
   xmlns:rdf="http://www.w3.org/1999/02/22-rdf-syntax-ns#"
   xmlns:svg="http://www.w3.org/2000/svg"
   xmlns="http://www.w3.org/2000/svg"
   xmlns:sodipodi="http://sodipodi.sourceforge.net/DTD/sodipodi-0.dtd"
   xmlns:inkscape="http://www.inkscape.org/namespaces/inkscape"
   width="210mm"
   height="297mm"
   viewBox="0 0 210 297"
   version="1.1"
   id="svg4838"
   inkscape:version="1.0.2-2 (e86c870879, 2021-01-15)"
   sodipodi:docname="cup-amo.svg">
  <defs
     id="defs4832" />
  <sodipodi:namedview
     id="base"
     pagecolor="#ffffff"
     bordercolor="#666666"
     borderopacity="1.0"
     inkscape:pageopacity="0.0"
     inkscape:pageshadow="2"
     inkscape:zoom="2.089781"
     inkscape:cx="487.25935"
     inkscape:cy="608.9861"
     inkscape:document-units="mm"
     inkscape:current-layer="layer1"
     inkscape:document-rotation="0"
     showgrid="false"
     inkscape:window-width="958"
     inkscape:window-height="1008"
     inkscape:window-x="-7"
     inkscape:window-y="0"
     inkscape:window-maximized="1" />
  <metadata
     id="metadata4835">
    <rdf:RDF>
      <cc:Work
         rdf:about="">
        <dc:format>image/svg+xml</dc:format>
        <dc:type
           rdf:resource="http://purl.org/dc/dcmitype/StillImage" />
        <dc:title />
      </cc:Work>
    </rdf:RDF>
  </metadata>
  <g
     inkscape:label="Layer 1"
     inkscape:groupmode="layer"
     id="layer1">
    <path
       style="fill:#000000;stroke:#000000;stroke-width:0.8;stroke-linecap:butt;stroke-linejoin:miter;stroke-miterlimit:4;stroke-dasharray:none;stroke-opacity:1;fill-opacity:1"
       d="m 103.94345,147.03274 6.4256,52.53869 26.26934,0 5.66964,-52.34971 z"
       id="path5427"
       sodipodi:nodetypes="ccccc" />
    <path
       style="fill:none;stroke:#000000;stroke-width:0.415416;stroke-linecap:butt;stroke-linejoin:miter;stroke-miterlimit:4;stroke-dasharray:none;stroke-opacity:1"
       d="m 123.73761,143.66487 c 0,0 -5.41074,-2.96182 2.52095,-6.52151 10.13959,-4.55057 -4.9747,-7.98398 -4.9747,-7.98398 0,0 -8.49948,-1.38302 1.97367,-6.74671"
       id="path4241-1"
       sodipodi:nodetypes="cscc" />
    <path
       style="fill:#000000;stroke:#000000;stroke-width:0.264583px;stroke-linecap:butt;stroke-linejoin:miter;stroke-opacity:1"
       d="m 140.85104,159.69354 c 0,0 12.02713,-1.87089 12.16076,8.68626 0.14562,11.50409 -12.29439,9.35443 -12.29439,9.35443 l -2.00453,-0.13363 -0.4009,2.93996 c 0,0 18.04069,3.74177 18.04069,-11.75986 1e-5,-13.77021 -14.96709,-11.89349 -14.96709,-11.89349 z"
       id="path5570"
       sodipodi:nodetypes="cscccscc" />
    <path
       style="fill:#ffffff;stroke:#000000;stroke-width:0.471257px;stroke-linecap:butt;stroke-linejoin:miter;stroke-opacity:1"
       d="m 108.92864,186.84155 1.45609,12.72674 h 26.23792 l 1.13849,-13.95302 c 0,0 -1.97178,9.73732 -13.34782,9.89134 -13.34988,0.18073 -15.48468,-8.66506 -15.48468,-8.66506 z"
       id="path5572"
       sodipodi:nodetypes="ccccsc" />
    <path
       style="fill:#ffffff;stroke:none;stroke-width:0.22295px;stroke-linecap:butt;stroke-linejoin:miter;stroke-opacity:1"
       d="m 106.56159,148.79627 5.28523,39.93356 c 7.7549,-8.17109 -14.596454,-39.49612 3.36921,-39.88806 -2.88482,-0.0152 -1.69753,0.30778 -8.65444,-0.0455 z"
       id="path5574"
       sodipodi:nodetypes="cccc" />
    <path
       style="fill:#ffffff;stroke:#000000;stroke-width:0.706;stroke-linecap:butt;stroke-linejoin:miter;stroke-miterlimit:4;stroke-dasharray:none;stroke-opacity:1;fill-opacity:1"
       d="m 140.85104,159.69354 c 0,0 14.52844,-2.18013 14.83131,7.93118 0.43048,14.37203 -11.08606,11.05901 -11.08606,11.05901 9.52174,0.57789 13.82132,-19.78315 -3.74525,-18.99019 z"
       id="path5660"
       sodipodi:nodetypes="cscc" />
    <path
       style="fill:#ffffff;fill-opacity:1;stroke:#ffffff;stroke-width:0.264583px;stroke-linecap:butt;stroke-linejoin:miter;stroke-opacity:1"
       d="m 128.46907,148.16468 h 12.80215 l -4.68565,47.74096 c 0,0 4.68565,-47.74096 -8.1165,-47.74096 z"
       id="path5662"
       sodipodi:nodetypes="cccc" />
    <path
       style="fill:#000000;stroke:none;stroke-width:0.343103px;stroke-linecap:butt;stroke-linejoin:miter;stroke-opacity:1"
       d="m 110.32788,191.27387 c 0,0 5.39097,6.3986 13.24952,6.18252 7.85856,-0.2161 10.1522,-2.53143 11.39959,-4.4763 1.24739,-1.94487 1.95703,-2.64642 1.95703,-2.64642 l -1.31424,9.10693 -23.95286,-2e-5 z"
       id="path5664"
       sodipodi:nodetypes="csscccc" />
    <path
       style="fill:none;stroke:#000000;stroke-width:0.388193;stroke-linecap:butt;stroke-linejoin:miter;stroke-miterlimit:4;stroke-dasharray:none;stroke-opacity:1"
       d="m 123.73761,143.66487 c 0,0 -4.88319,-2.38897 0.87067,-7.21929 7.35552,-6.1749 -2.55996,-7.02798 -2.55996,-7.02798 0,0 -6.27037,0.0727 1.20921,-7.00493"
       id="path4241-1-9"
       sodipodi:nodetypes="cscc" />
  </g>
</svg>
