<?xml version="1.0" encoding="UTF-8" standalone="no"?>
<svg
   xmlns:dc="http://purl.org/dc/elements/1.1/"
   xmlns:cc="http://creativecommons.org/ns#"
   xmlns:rdf="http://www.w3.org/1999/02/22-rdf-syntax-ns#"
   xmlns:svg="http://www.w3.org/2000/svg"
   xmlns="http://www.w3.org/2000/svg"
   xmlns:sodipodi="http://sodipodi.sourceforge.net/DTD/sodipodi-0.dtd"
   xmlns:inkscape="http://www.inkscape.org/namespaces/inkscape"
   width="213mm"
   height="207mm"
   viewBox="0 0 213 207"
   version="1.1"
   id="svg4838"
   inkscape:version="1.0.2-2 (e86c870879, 2021-01-15)"
   sodipodi:docname="cup-amo.svg">
  <defs
     id="defs4832" />
  <sodipodi:namedview
     id="base"
     pagecolor="#ffffff"
     bordercolor="#666666"
     borderopacity="1.0"
     inkscape:pageopacity="0.0"
     inkscape:pageshadow="2"
     inkscape:zoom="0.52244525"
     inkscape:cx="519.58177"
     inkscape:cy="563.22912"
     inkscape:document-units="mm"
     inkscape:current-layer="layer1"
     inkscape:document-rotation="0"
     showgrid="false"
     inkscape:window-width="1920"
     inkscape:window-height="1017"
     inkscape:window-x="-8"
     inkscape:window-y="-8"
     inkscape:window-maximized="1" />
  <metadata
     id="metadata4835">
    <rdf:RDF>
      <cc:Work
         rdf:about="">
        <dc:format>image/svg+xml</dc:format>
        <dc:type
           rdf:resource="http://purl.org/dc/dcmitype/StillImage" />
        <dc:title></dc:title>
      </cc:Work>
    </rdf:RDF>
  </metadata>
  <g
     inkscape:label="Layer 1"
     inkscape:groupmode="layer"
     id="layer1">
    <path
       style="fill:#000000;fill-opacity:1;stroke:#000000;stroke-width:2.93301;stroke-linecap:butt;stroke-linejoin:miter;stroke-miterlimit:4;stroke-dasharray:none;stroke-opacity:1"
       d="M 10.446157,7.0223502 34.004047,199.64262 H 130.31415 L 151.1005,7.7151992 Z"
       id="path5427"
       sodipodi:nodetypes="ccccc" />
    <path
       style="fill:#000000;stroke:#000000;stroke-width:0.97003px;stroke-linecap:butt;stroke-linejoin:miter;stroke-opacity:1"
       d="m 145.7588,53.440078 c 0,0 44.09454,-6.859159 44.58446,31.846046 0.53388,42.176946 -45.07437,34.295736 -45.07437,34.295736 l -7.34912,-0.48992 -1.46981,10.77865 c 0,0 66.14178,13.71829 66.14178,-43.114646 4e-5,-50.485124 -54.87317,-43.604588 -54.87317,-43.604588 z"
       id="path5570"
       sodipodi:nodetypes="cscccscc" />
    <path
       style="fill:#ffffff;stroke:#000000;stroke-width:1.72775px;stroke-linecap:butt;stroke-linejoin:miter;stroke-opacity:1"
       d="m 28.723137,152.97163 5.338397,46.65948 h 96.194916 l 4.174,-51.15534 c 0,0 -7.22906,35.6995 -48.936519,36.26418 -48.944073,0.6626 -56.770794,-31.76832 -56.770794,-31.76832 z"
       id="path5572"
       sodipodi:nodetypes="ccccsc" />
    <path
       style="fill:#ffffff;stroke:none;stroke-width:0.817389px;stroke-linecap:butt;stroke-linejoin:miter;stroke-opacity:1"
       d="M 20.044926,13.487903 39.42193,159.89455 C 67.853375,129.93724 -14.092398,15.091669 51.774315,13.654717 41.197827,13.59899 45.550736,14.783118 20.044926,13.487903 Z"
       id="path5574"
       sodipodi:nodetypes="cccc" />
    <path
       style="fill:#ffffff;fill-opacity:1;stroke:#000000;stroke-width:2.58838;stroke-linecap:butt;stroke-linejoin:miter;stroke-miterlimit:4;stroke-dasharray:none;stroke-opacity:1"
       d="m 145.7588,53.440078 c 0,0 53.26499,-7.992913 54.37537,29.077736 1.57825,52.691536 -40.64432,40.545166 -40.64432,40.545166 34.90913,2.11868 50.67248,-72.530095 -13.73105,-69.622902 z"
       id="path5660"
       sodipodi:nodetypes="cscc" />
    <path
       style="fill:#ffffff;fill-opacity:1;stroke:#ffffff;stroke-width:0.97003px;stroke-linecap:butt;stroke-linejoin:miter;stroke-opacity:1"
       d="m 100.36334,11.172332 h 46.93595 L 130.1205,186.2029 c 0,0 17.17879,-175.030568 -29.75716,-175.030568 z"
       id="path5662"
       sodipodi:nodetypes="cccc" />
    <path
       style="fill:#000000;stroke:none;stroke-width:1.2579px;stroke-linecap:butt;stroke-linejoin:miter;stroke-opacity:1"
       d="m 33.853108,169.22164 c 0,0 19.764673,23.45891 48.576125,22.6667 28.811477,-0.79227 37.220557,-9.28086 41.793807,-16.41126 4.57324,-7.13038 7.17497,-9.70244 7.17497,-9.70244 l -4.81833,33.38833 -87.817309,-7e-5 z"
       id="path5664"
       sodipodi:nodetypes="csscccc" />
  </g>
</svg>
