<?xml version="1.0" encoding="UTF-8" standalone="no"?>
<svg
   xmlns:osb="http://www.openswatchbook.org/uri/2009/osb"
   xmlns:dc="http://purl.org/dc/elements/1.1/"
   xmlns:cc="http://creativecommons.org/ns#"
   xmlns:rdf="http://www.w3.org/1999/02/22-rdf-syntax-ns#"
   xmlns:svg="http://www.w3.org/2000/svg"
   xmlns="http://www.w3.org/2000/svg"
   xmlns:sodipodi="http://sodipodi.sourceforge.net/DTD/sodipodi-0.dtd"
   xmlns:inkscape="http://www.inkscape.org/namespaces/inkscape"
   width="210mm"
   height="100mm"
   viewBox="0 0 210 100"
   version="1.1"
   id="svg8"
   inkscape:version="1.0.2-2 (e86c870879, 2021-01-15)"
   sodipodi:docname="cup-cap.svg">
  <defs
     id="defs2">
    <linearGradient
       id="linearGradient3503"
       osb:paint="solid">
      <stop
         style="stop-color:#000000;stop-opacity:1;"
         offset="0"
         id="stop3501" />
    </linearGradient>
    <clipPath
       clipPathUnits="userSpaceOnUse"
       id="clipPath3523">
      <g
         inkscape:label="Clip"
         id="use3525">
        <path
           style="fill:none;stroke:#000000;stroke-width:0.342;stroke-linecap:butt;stroke-linejoin:miter;stroke-miterlimit:4;stroke-dasharray:none;stroke-opacity:1"
           d="m 118.05656,170.71289 c 0,0 6.43784,-2.80677 5.57454,3.03797 -0.86328,5.84475 -11.4097,6.56957 -11.4097,6.56957"
           id="path3529"
           sodipodi:nodetypes="csc" />
        <path
           style="fill:none;stroke:#000000;stroke-width:0.271731px;stroke-linecap:butt;stroke-linejoin:miter;stroke-opacity:1"
           d="m 117.7797,171.66205 c 0,0 5.18665,-2.19763 4.49113,2.37865 -0.69551,4.57629 -8.97,5.2697 -8.97,5.2697"
           id="path3531"
           sodipodi:nodetypes="csc" />
      </g>
    </clipPath>
  </defs>
  <sodipodi:namedview
     id="base"
     pagecolor="#ffffff"
     bordercolor="#666666"
     borderopacity="1.0"
     inkscape:pageopacity="0.0"
     inkscape:pageshadow="2"
     inkscape:zoom="0.23980324"
     inkscape:cx="520.65127"
     inkscape:cy="1166.8539"
     inkscape:document-units="mm"
     inkscape:current-layer="layer2"
     inkscape:document-rotation="0"
     showgrid="false"
     inkscape:window-width="1920"
     inkscape:window-height="1017"
     inkscape:window-x="-8"
     inkscape:window-y="-8"
     inkscape:window-maximized="1"
     inkscape:lockguides="true" />
  <metadata
     id="metadata5">
    <rdf:RDF>
      <cc:Work
         rdf:about="">
        <dc:format>image/svg+xml</dc:format>
        <dc:type
           rdf:resource="http://purl.org/dc/dcmitype/StillImage" />
        <dc:title></dc:title>
      </cc:Work>
    </rdf:RDF>
  </metadata>
  <g
     inkscape:groupmode="layer"
     id="layer2"
     inkscape:label="Layer 2">
    <path
       style="fill:#ffffff;fill-opacity:1;stroke:#000000;stroke-width:3.34805;stroke-linecap:butt;stroke-linejoin:miter;stroke-miterlimit:4;stroke-dasharray:none;stroke-opacity:1"
       d="m 10.735667,7.1802128 c 0,0 5.653535,69.2340232 53.195158,85.3922032 l 63.554195,-0.28029 c 0,0 48.90902,-23.27549 52.91519,-85.1122682 z"
       id="path968"
       sodipodi:nodetypes="ccccc" />
    <path
       style="fill:#000000;stroke:none;stroke-width:0.221135"
       d="m 20.685147,27.955986 c -0.621452,0.51554 0.217238,1.55373 0.277148,2.20539 5.429393,15.89194 13.08786,31.39082 24.892896,42.91298 6.217976,6.12671 13.582297,10.84829 21.454217,14.0927 13.68009,-0.49658 27.376712,0.0119 41.057922,-0.41954 0.48592,0.21214 1.05817,-0.48236 0.32829,-0.51732 -18.589697,-1.18871 -37.267868,-6.41244 -53.088899,-17.16479 -14.354695,-9.60714 -25.920011,-23.63779 -33.778163,-39.63705 -0.335635,-0.45865 -0.560518,-1.33057 -1.143642,-1.47125 z"
       id="path3497" />
    <path
       style="fill:#000000;stroke:none;stroke-width:0.19425"
       d="m 135.07094,31.456626 c 16.69926,18.22775 2.51566,33.53263 -3.39937,47.9225 12.39746,-8.53552 25.47051,-29.7463 29.96236,-43.05804 2.15063,-6.52468 3.6774,-13.69609 4.46085,-20.582773 -41.68262,0.07585 -92.589101,-0.162958 -134.77243,-0.168291 79.56314,5.235344 80.23132,-2.813432 103.74859,15.887134 z"
       id="path3507"
       sodipodi:nodetypes="cccccc" />
    <path
       style="fill:#000000;fill-opacity:1;stroke:#000000;stroke-width:1.56096px;stroke-linecap:butt;stroke-linejoin:miter;stroke-opacity:1"
       d="m 176.00839,31.197076 1.62591,-5.62538 c 0,0 34.12568,-12.723849 32.50819,12.85404 -1.61744,25.57789 -26.26765,37.54976 -62.62426,41.10059 v 0 l 2.18667,-2.99968 c 0,0 52.96141,-4.42909 52.52012,-36.50937 -0.28621,-20.807416 -26.21663,-8.8202 -26.21663,-8.8202 z"
       id="path3527"
       sodipodi:nodetypes="ccscccsc" />
  </g>
</svg>
