<?xml version="1.0" encoding="UTF-8" standalone="no"?>
<svg
   xmlns:dc="http://purl.org/dc/elements/1.1/"
   xmlns:cc="http://creativecommons.org/ns#"
   xmlns:rdf="http://www.w3.org/1999/02/22-rdf-syntax-ns#"
   xmlns:svg="http://www.w3.org/2000/svg"
   xmlns="http://www.w3.org/2000/svg"
   xmlns:sodipodi="http://sodipodi.sourceforge.net/DTD/sodipodi-0.dtd"
   xmlns:inkscape="http://www.inkscape.org/namespaces/inkscape"
   width="207mm"
   height="236mm"
   viewBox="0 0 207 236"
   version="1.1"
   id="svg3541"
   sodipodi:docname="cup-latte.svg"
   inkscape:version="1.0.2-2 (e86c870879, 2021-01-15)">
  <defs
     id="defs3535">
    <inkscape:perspective
       sodipodi:type="inkscape:persp3d"
       inkscape:vp_x="82.905614 : -3.132472 : 1"
       inkscape:vp_y="-663.26675 : 748.38303 : 0"
       inkscape:vp_z="240.06606 : 136.15342 : 1"
       inkscape:persp3d-origin="194.31754 : 29.465586 : 1"
       id="perspective4197" />
    <clipPath
       clipPathUnits="userSpaceOnUse"
       id="clipPath1460">
      <g
         inkscape:label="Clip"
         id="use1462"
         transform="matrix(0.96713916,0,0,0.94485057,5.823415,2.0976118)"
         style="fill:#ffffff">
        <g
           id="g6278"
           transform="matrix(-0.51695262,0.82933543,-0.88355082,-0.51695261,362.55062,19.178962)"
           style="fill:#ffffff">
          <g
             id="g6268"
             style="fill:#ffffff">
            <path
               style="fill:#ffffff;fill-opacity:1;stroke:#000000;stroke-width:2.74936;stroke-linecap:round;stroke-linejoin:miter;stroke-miterlimit:4;stroke-dasharray:none;stroke-opacity:1"
               d="m 147.77327,91.005677 14.69978,-49.077618 c 0,0 4.2662,-6.581499 11.4831,-1.126984 5.06296,3.826576 -0.3001,13.370303 -0.3001,13.370303 l -18.14878,41.176169 c 0,0 -5.92566,1.65982 -7.734,-4.34187 z"
               id="path6262"
               sodipodi:nodetypes="ccsccc" />
            <path
               style="fill:#ffffff;stroke:#000000;stroke-width:1.72839;stroke-linecap:butt;stroke-linejoin:miter;stroke-miterlimit:4;stroke-dasharray:none;stroke-opacity:1"
               d="m 162.47305,41.928059 c 0,0 1.36951,6.289472 4.87225,6.768949 4.09738,0.560879 4.77555,-2.330038 3.74704,-4.502982 -1.02849,-2.172938 -3.63178,-2.089438 -4.0468,0.166744"
               id="path6264"
               sodipodi:nodetypes="cssc" />
            <path
               style="fill:#ffffff;stroke:#000000;stroke-width:1.10371;stroke-linecap:round;stroke-linejoin:round;stroke-miterlimit:4;stroke-dasharray:8.8297, 2.20743, 1.10371, 2.20743;stroke-dashoffset:0;stroke-opacity:1"
               d="m 171.12402,47.450548 -15.93336,38.94253"
               id="path6266"
               sodipodi:nodetypes="cc" />
          </g>
          <g
             id="g6276"
             transform="matrix(0.85696499,-0.49931244,0.53195354,0.85696498,-16.625146,90.859865)"
             style="fill:#ffffff">
            <path
               style="fill:#ffffff;fill-opacity:1;stroke:#000000;stroke-width:2.74936;stroke-linecap:round;stroke-linejoin:miter;stroke-miterlimit:4;stroke-dasharray:none;stroke-opacity:1"
               d="m 147.77327,91.005677 14.69978,-49.077618 c 0,0 4.2662,-6.581499 11.4831,-1.126984 5.06296,3.826576 -0.3001,13.370303 -0.3001,13.370303 l -18.14878,41.176169 c 0,0 -5.92566,1.65982 -7.734,-4.34187 z"
               id="path6270"
               sodipodi:nodetypes="ccsccc" />
            <path
               style="fill:#ffffff;stroke:#000000;stroke-width:1.72839;stroke-linecap:butt;stroke-linejoin:miter;stroke-miterlimit:4;stroke-dasharray:none;stroke-opacity:1"
               d="m 162.47305,41.928059 c 0,0 1.36951,6.289472 4.87225,6.768949 4.09738,0.560879 4.77555,-2.330038 3.74704,-4.502982 -1.02849,-2.172938 -3.63178,-2.089438 -4.0468,0.166744"
               id="path6272"
               sodipodi:nodetypes="cssc" />
            <path
               style="fill:#ffffff;stroke:#000000;stroke-width:1.10371;stroke-linecap:round;stroke-linejoin:round;stroke-miterlimit:4;stroke-dasharray:8.8297, 2.20743, 1.10371, 2.20743;stroke-dashoffset:0;stroke-opacity:1"
               d="m 171.12402,47.450548 -15.93336,38.94253"
               id="path6274"
               sodipodi:nodetypes="cc" />
          </g>
        </g>
      </g>
    </clipPath>
  </defs>
  <sodipodi:namedview
     id="base"
     pagecolor="#ffffff"
     bordercolor="#666666"
     borderopacity="1.0"
     inkscape:pageopacity="0.0"
     inkscape:pageshadow="2"
     inkscape:zoom="0.7380427"
     inkscape:cx="460.17795"
     inkscape:cy="347.35379"
     inkscape:document-units="mm"
     inkscape:current-layer="svg3541"
     inkscape:document-rotation="0"
     showgrid="false"
     inkscape:window-width="1920"
     inkscape:window-height="1017"
     inkscape:window-x="-8"
     inkscape:window-y="-8"
     inkscape:window-maximized="1" />
  <metadata
     id="metadata3538">
    <rdf:RDF>
      <cc:Work
         rdf:about="">
        <dc:format>image/svg+xml</dc:format>
        <dc:type
           rdf:resource="http://purl.org/dc/dcmitype/StillImage" />
        <dc:title />
      </cc:Work>
    </rdf:RDF>
  </metadata>
  <g
     inkscape:groupmode="layer"
     id="layer2"
     inkscape:label="Layer 2" />
  <path
     style="fill:#ffffff;stroke:#000000;stroke-width:1.22109px;stroke-linecap:butt;stroke-linejoin:miter;stroke-opacity:1"
     d="M 3.0915087,2.9515403 157.27796,2.3348169 c 0,0 -25.90332,82.6439591 -24.0531,117.7984331 1.85028,35.15454 1.85028,80.79371 -48.106161,80.79371 -49.956445,0 -62.908105,-28.37031 -61.057842,-81.41045 C 25.911066,66.476366 3.0915087,2.9515403 3.0915087,2.9515403 Z"
     id="path4131" />
  <path
     style="fill:#ffffff;stroke:#000000;stroke-width:1.5291px;stroke-linecap:butt;stroke-linejoin:miter;stroke-opacity:1"
     d="m 67.366808,199.82665 c 0,0 3.23453,31.53017 -53.761919,31.87816 -56.592201,0.34522 145.490571,0.52193 145.490571,0.52193 0,0 -61.35449,0.93056 -63.001654,-31.39588 -0.06447,-1.27503 -20.44982,-0.47909 -28.726998,-1.00421 z"
     id="path4133"
     sodipodi:nodetypes="cscsc" />
  <path
     style="fill:#ffffff;stroke:#000000;stroke-width:1.22109px;stroke-linecap:butt;stroke-linejoin:miter;stroke-opacity:1"
     d="m 142.47602,56.300068 c 0,0 49.03133,-31.454035 60.44114,-1.233479 11.40978,30.220524 -68.76719,90.970011 -68.76719,90.970011 l -0.61671,-10.48467 c 0,0 64.75829,-48.106229 58.8992,-73.701175 -6.55016,-28.613655 -52.42343,6.167492 -52.42343,6.167492 z"
     id="path4135"
     sodipodi:nodetypes="csccscc" />
  <path
     style="fill:#000000;stroke:none;stroke-width:0.377242"
     d="m 176.19231,42.12876 c -11.92155,3.081731 -23.2137,8.137177 -33.71629,14.171308 -0.53151,3.178407 -2.32012,8.578939 -2.46699,11.718179 6.53575,-5.000322 13.43204,-12.42966 20.55317,-16.772851 5.00657,-3.398579 10.6824,-5.923562 15.85119,-8.995203 -0.0129,-0.098 -0.12185,-0.154088 -0.22114,-0.12153 z"
     id="path4141"
     sodipodi:nodetypes="sccccss" />
  <path
     style="fill:#000000;stroke:none;stroke-width:0.329542"
     d="m 181.95992,100.91765 c -4.69144,3.96016 -9.12692,8.29977 -14.25313,11.71969 -4.52526,3.31258 -10.57754,5.72744 -15.58111,8.15336 -6.67911,5.08282 -11.89709,9.69473 -18.59242,14.76123 0.24274,3.00104 -0.0654,7.64371 0.61671,10.48467 8.90987,-6.843 17.28847,-14.41427 25.59801,-22.00334 7.61305,-7.39027 15.3486,-14.72171 22.20762,-22.85237 0.0367,-0.049 4.36266,-4.398574 4.14732,-4.297031 z"
     id="path4143"
     sodipodi:nodetypes="ccccccccc" />
  <path
     style="fill:none;stroke:#000000;stroke-width:2.08144;stroke-linecap:butt;stroke-linejoin:miter;stroke-miterlimit:4;stroke-dasharray:none;stroke-opacity:1"
     d="M 9.5279033,5.9524104 151.76409,5.350132 c 0,0 -23.89569,80.708486 -22.1888,115.039648 1.7068,34.33126 1.7068,78.90162 -44.377741,78.90162 -46.084546,0 -58.032405,-27.70592 -56.325541,-79.50395 C 30.57884,67.989524 9.5279033,5.9524104 9.5279033,5.9524104 Z"
     id="path4131-9" />
  <path
     style="fill:#000000;stroke:#000000;stroke-width:1.55616px;stroke-linecap:butt;stroke-linejoin:miter;stroke-opacity:1"
     d="m 84.66862,200.78167 c 0,0 -4.371913,31.36255 47.60992,31.36255 l -47.272635,-1e-4 z"
     id="path4171"
     sodipodi:nodetypes="cccc" />
  <path
     style="fill:#000000;stroke:none;stroke-width:0.307656"
     d="m 28.506967,133.06508 c 0.361817,13.2246 2.185731,26.43943 7.008078,38.90372 3.948041,10.58701 12.269028,20.62125 22.880286,24.94626 11.2632,4.70758 24.788047,5.08062 36.808084,3.73457 8.544055,-1.19621 16.396655,-4.4006 22.020935,-11.04467 7.59242,-8.2912 10.60588,-20.67125 12.11211,-31.48776 1.09866,-9.06573 0.82743,-19.7943 0.43057,-28.90632 -35.513288,0.13765 -59.371455,0.30721 -100.797573,0.3789 z"
     id="path4173"
     sodipodi:nodetypes="ccccccccc" />
  <path
     style="fill:#ffffff;stroke:none;stroke-width:1.04055px;stroke-linecap:butt;stroke-linejoin:miter;stroke-opacity:1"
     d="m 43.0516,147.21037 c 0,0 1.775527,46.54169 27.593192,51.09696 l 14.023828,2.47434 c 0,0 -41.420638,-22.05904 -41.61702,-53.5712 z"
     id="path4175"
     sodipodi:nodetypes="csccc" />
  <path
     style="fill:#ffffff;stroke:#000000;stroke-width:0.836521px;stroke-linecap:butt;stroke-linejoin:miter;stroke-opacity:1"
     d="m 80.492992,131.73025 46.272348,0.80813 c 0,0 1.10041,41.79638 -9.03398,49.93862 -10.13455,8.14223 0.82486,-0.75742 0.82486,-0.75742 0,0 20.03326,-49.98933 -38.063228,-49.98933 z"
     id="path4177"
     sodipodi:nodetypes="ccscc" />
  <path
     style="fill:#000000;stroke:#000000;stroke-width:0.695444px;stroke-linecap:butt;stroke-linejoin:miter;stroke-opacity:1"
     d="M 28.969457,129.58978 30.61978,6.0556979 H 9.6079776 c 0,0 14.9721304,29.9791651 19.3614794,123.5340821 z"
     id="path4179"
     sodipodi:nodetypes="cccc" />
  <path
     style="fill:#000000;stroke:#000000;stroke-width:0.530692px;stroke-linecap:butt;stroke-linejoin:miter;stroke-opacity:1"
     d="M 29.346038,74.829782 V 122.1187 h 31.665697 c 0,0 -30.308593,1.66757 -31.665697,-47.288918 z"
     id="path4179-7" />
  <path
     style="fill:#000000;stroke:#000000;stroke-width:0.785666px;stroke-linecap:butt;stroke-linejoin:miter;stroke-opacity:1"
     d="M 28.439271,94.173713 30.61978,6.0556979 h 37.430625 c 0,0 -38.007005,-2.6559803 -39.611134,88.1180151 z"
     id="path4179-7-5"
     sodipodi:nodetypes="cccc" />
</svg>
