<?xml version="1.0" encoding="UTF-8" standalone="no"?>
<svg
   xmlns:osb="http://www.openswatchbook.org/uri/2009/osb"
   xmlns:dc="http://purl.org/dc/elements/1.1/"
   xmlns:cc="http://creativecommons.org/ns#"
   xmlns:rdf="http://www.w3.org/1999/02/22-rdf-syntax-ns#"
   xmlns:svg="http://www.w3.org/2000/svg"
   xmlns="http://www.w3.org/2000/svg"
   xmlns:sodipodi="http://sodipodi.sourceforge.net/DTD/sodipodi-0.dtd"
   xmlns:inkscape="http://www.inkscape.org/namespaces/inkscape"
   width="534.24707mm"
   height="478.61157mm"
   viewBox="0 0 534.24707 478.61157"
   version="1.1"
   id="svg8"
   inkscape:version="1.0.2-2 (e86c870879, 2021-01-15)"
   sodipodi:docname="cup-cap.svg">
  <defs
     id="defs2">
    <linearGradient
       id="linearGradient3503"
       osb:paint="solid">
      <stop
         style="stop-color:#000000;stop-opacity:1;"
         offset="0"
         id="stop3501" />
    </linearGradient>
    <clipPath
       clipPathUnits="userSpaceOnUse"
       id="clipPath3523">
      <g
         inkscape:label="Clip"
         id="use3525">
        <path
           style="fill:none;stroke:#000000;stroke-width:0.342;stroke-linecap:butt;stroke-linejoin:miter;stroke-miterlimit:4;stroke-dasharray:none;stroke-opacity:1"
           d="m 118.05656,170.71289 c 0,0 6.43784,-2.80677 5.57454,3.03797 -0.86328,5.84475 -11.4097,6.56957 -11.4097,6.56957"
           id="path3529"
           sodipodi:nodetypes="csc" />
        <path
           style="fill:none;stroke:#000000;stroke-width:0.271731px;stroke-linecap:butt;stroke-linejoin:miter;stroke-opacity:1"
           d="m 117.7797,171.66205 c 0,0 5.18665,-2.19763 4.49113,2.37865 -0.69551,4.57629 -8.97,5.2697 -8.97,5.2697"
           id="path3531"
           sodipodi:nodetypes="csc" />
      </g>
    </clipPath>
  </defs>
  <sodipodi:namedview
     id="base"
     pagecolor="#ffffff"
     bordercolor="#666666"
     borderopacity="1.0"
     inkscape:pageopacity="0.0"
     inkscape:pageshadow="2"
     inkscape:zoom="0.25"
     inkscape:cx="878.88994"
     inkscape:cy="853.59621"
     inkscape:document-units="mm"
     inkscape:current-layer="layer2"
     inkscape:document-rotation="0"
     showgrid="false"
     inkscape:window-width="1920"
     inkscape:window-height="1017"
     inkscape:window-x="-8"
     inkscape:window-y="-8"
     inkscape:window-maximized="1"
     inkscape:lockguides="true" />
  <metadata
     id="metadata5">
    <rdf:RDF>
      <cc:Work
         rdf:about="">
        <dc:format>image/svg+xml</dc:format>
        <dc:type
           rdf:resource="http://purl.org/dc/dcmitype/StillImage" />
        <dc:title />
      </cc:Work>
    </rdf:RDF>
  </metadata>
  <g
     inkscape:groupmode="layer"
     id="layer2"
     inkscape:label="Layer 2"
     transform="translate(-8.8913735,-5.8659115)">
    <path
       style="fill:#ffffff;fill-opacity:1;stroke:#000000;stroke-width:12.1674;stroke-linecap:butt;stroke-linejoin:miter;stroke-miterlimit:4;stroke-dasharray:none;stroke-opacity:1"
       d="m 15.108004,11.951571 c 0,0 -8.3317291,378.585199 107.168206,466.426289 l 196.32839,-1.52375 c 0,0 98.96193,-128.73975 108.69471,-464.904469 z"
       id="path968"
       sodipodi:nodetypes="ccccc" />
    <path
       style="fill:#000000;stroke:none;stroke-width:0.648365"
       d="m 66.863133,250.50927 c -1.509785,1.82422 0.527769,5.49783 0.673317,7.80371 13.190432,56.23317 31.796285,111.07551 60.47602,151.84633 15.10625,21.67919 32.99749,38.38637 52.12192,49.86662 33.23507,-1.75713 66.51032,0.0421 99.74811,-1.48453 1.18052,0.75065 2.57077,-1.70682 0.79757,-1.83053 -45.16272,-4.20621 -90.54038,-22.69022 -128.97676,-60.7371 -34.874,-33.99459 -62.971341,-83.64164 -82.062318,-140.25456 -0.815408,-1.62292 -1.36175,-4.70818 -2.77842,-5.20597 z"
       id="path3497" />
    <path
       style="fill:#000000;stroke:none;stroke-width:0.70594"
       d="m 329.31087,121.8593 c 40.56999,99.09194 25.97169,135.95415 11.60143,214.18213 30.11899,-46.40184 42.01927,-115.37043 52.93199,-187.73735 5.22484,-35.47027 8.93405,-74.456377 10.8374,-111.894612 C 303.41591,36.821813 179.74122,35.523576 77.258982,35.494584 270.55355,63.955606 272.17686,20.199858 329.31087,121.86218 Z"
       id="path3507"
       sodipodi:nodetypes="ccccccc" />
    <path
       style="fill:#000000;fill-opacity:1;stroke:#000000;stroke-width:4.09333px;stroke-linecap:butt;stroke-linejoin:miter;stroke-opacity:1"
       d="m 421.66613,96.468981 0.99243,-9.589261 c 0,0 122.03471,-23.477483 118.3532,53.79958 -3.68141,77.27705 -59.78693,113.447 -142.53702,124.17492 v 0 l 5.52403,-15.97524 c 0,0 119.99669,-6.46889 118.99229,-103.39126 C 522.33963,82.623434 421.66613,96.468981 421.66613,96.468981 Z"
       id="path3527"
       sodipodi:nodetypes="ccscccsc" />
  </g>
</svg>
