<svg xmlns="http://www.w3.org/2000/svg" width="70.716" height="70.717" viewBox="0 0 70.716 70.717">
  <path id="iconfinder_Circled_Facebook_svg_5279111" d="M35.223,70.716h0Zm.249,0h0Zm-.357,0h0Zm.472,0h0Zm-.576,0h0Zm.69,0h0Zm.114,0h0Zm-.936,0h0Zm1.05,0h0Zm-1.161,0h0Zm1.275,0h0Zm-1.379,0h0Zm-.129,0h0Zm1.622,0h0Zm-1.736,0h0Zm1.849,0h0Zm.114,0h0Zm-2.067,0h0Zm-.1,0h0Zm2.28,0h0Zm.113,0H36.6l.048,0Zm-2.537,0,.048,0h-.048Zm-.1,0,.05,0h-.05Zm2.754,0H36.7l.05,0Zm-2.856,0,.049,0-.038,0h-.011Zm2.969,0-.038,0,.049,0Zm-3.111-.007.052,0h-.013Zm3.224,0h-.013l.052,0-.04,0Zm-3.326-.007.054,0h-.054Zm3.439,0h-.026l.054,0Zm-3.54-.006.055,0-.039,0Zm3.653,0-.039,0,.055,0Zm.113-.006-.05,0,.044,0,.052,0Zm-3.857,0,.044,0-.05,0-.047,0,.052,0Zm3.97-.007H37.38l.056,0Zm-4.122,0,.056,0h-.022Zm-.1-.006.056,0-.035,0Zm4.334,0-.035,0,.056,0Zm-4.43-.007.05,0-.047,0-.047,0Zm4.542,0-.047,0,.05,0,.044,0-.047,0Zm.112-.007h-.017l.053,0Zm-4.8,0,.053,0h-.017Zm-.1-.007.052,0-.029,0-.024,0Zm5.012,0-.029,0,.052,0Zm-5.112-.009.048,0-.037,0Zm5.224,0-.037,0,.048,0Zm-5.357-.011.042,0h-.01Zm5.47,0h-.01l.042,0Zm.112-.009-.02,0,.043,0Zm-5.685,0,.043,0-.02,0-.023,0Zm-.1-.008.036,0-.026,0Zm5.9,0-.026,0,.036,0Zm-6.007-.01h0Zm6.119,0h0Zm.112-.01h-.01l.025,0h-.015Zm-6.349,0,.025,0h-.025Zm-.1-.009.019,0h-.019Zm6.564,0h-.012l.019,0Zm-8.8-.28a35.358,35.358,0,1,1,11.049,0V45.579h8.239l1.568-10.221H40.883V28.726c0-2.8,1.37-5.522,5.762-5.522H51.1V14.5a54.372,54.372,0,0,0-7.915-.691c-8.077,0-13.355,4.895-13.355,13.757v7.79H20.856V45.579h8.978Z" fill="#fff" fill-rule="evenodd"/>
</svg>
