<?xml version="1.0" encoding="UTF-8" standalone="no"?>
<svg
   xmlns:dc="http://purl.org/dc/elements/1.1/"
   xmlns:cc="http://creativecommons.org/ns#"
   xmlns:rdf="http://www.w3.org/1999/02/22-rdf-syntax-ns#"
   xmlns:svg="http://www.w3.org/2000/svg"
   xmlns="http://www.w3.org/2000/svg"
   xmlns:sodipodi="http://sodipodi.sourceforge.net/DTD/sodipodi-0.dtd"
   xmlns:inkscape="http://www.inkscape.org/namespaces/inkscape"
   width="117mm"
   height="190mm"
   viewBox="0 0 117 190"
   version="1.1"
   id="svg4583"
   inkscape:version="1.0.2-2 (e86c870879, 2021-01-15)"
   sodipodi:docname="syrup_hazel.svg">
  <defs
     id="defs4577" />
  <sodipodi:namedview
     id="base"
     pagecolor="#ffffff"
     bordercolor="#666666"
     borderopacity="1.0"
     inkscape:pageopacity="0.0"
     inkscape:pageshadow="2"
     inkscape:zoom="0.35"
     inkscape:cx="400"
     inkscape:cy="560"
     inkscape:document-units="mm"
     inkscape:current-layer="layer1"
     inkscape:document-rotation="0"
     showgrid="false"
     inkscape:window-width="1267"
     inkscape:window-height="1040"
     inkscape:window-x="637"
     inkscape:window-y="0"
     inkscape:window-maximized="0" />
  <metadata
     id="metadata4580">
    <rdf:RDF>
      <cc:Work
         rdf:about="">
        <dc:format>image/svg+xml</dc:format>
        <dc:type
           rdf:resource="http://purl.org/dc/dcmitype/StillImage" />
        <dc:title></dc:title>
      </cc:Work>
    </rdf:RDF>
  </metadata>
  <g
     inkscape:label="Layer 1"
     inkscape:groupmode="layer"
     id="layer1">
    <path
       style="fill:#ffffff;fill-opacity:1;stroke:#000000;stroke-width:1.09138px;stroke-linecap:butt;stroke-linejoin:miter;stroke-opacity:1"
       d="m 37.181096,27.421337 c 0,0 0.946142,32.816277 -6.535251,37.643017 -8.1037,5.22821 -21.1741888,8.36509 -21.9584108,30.32354 -0.990085,27.722566 5.7510078,91.754816 5.7510078,91.754816 h 76.070233 c 0,0 13.711855,-82.39496 3.92116,-101.688376 -8.88794,-17.51446 -11.66849,-15.64678 -20.12856,-21.95844 -10.52846,-7.854765 -8.1037,-36.074515 -8.1037,-36.074515 z"
       id="path3095-2"
       sodipodi:nodetypes="cssccsscc" />
    <path
       style="fill:#000000;stroke:#000000;stroke-width:3.89805;stroke-linecap:butt;stroke-linejoin:miter;stroke-miterlimit:4;stroke-dasharray:none;stroke-opacity:1"
       d="m 42.764946,27.421337 h -5.58385 v -13.85472 c 0,0 -0.222829,-6.2005827 5.360498,-6.2738417 l 19.919721,-0.26152 c 0,0 4.3286,0.949598 4.18778,5.5712027 l -0.45152,14.818797 z"
       id="path3097-1"
       sodipodi:nodetypes="cccscscc" />
    <path
       style="fill:#ffffff;fill-opacity:1;stroke:#000000;stroke-width:1.12745px;stroke-linecap:butt;stroke-linejoin:miter;stroke-opacity:1"
       d="m 69.595905,56.097717 c 0,0 18.56009,-14.50661 29.27789,-0.836782 10.717815,13.669659 -3.65973,31.523939 -3.65973,31.523939 0,0 2.8755,9.20604 2.35268,11.43787 -0.52282,2.231786 19.373405,-26.05746 8.887935,-44.91463 C 92.338555,27.921567 66.981805,49.628766 66.981805,49.628766 Z"
       id="path3099-3"
       sodipodi:nodetypes="cscsscc" />
    <path
       style="fill:#000000;fill-opacity:1;stroke:#000000;stroke-width:1.36876px;stroke-linecap:butt;stroke-linejoin:miter;stroke-opacity:1"
       d="m 28.998685,163.8741 48.70066,0.34237 v -53.02431 c 0,0 0.62841,-25.999016 -23.87903,-25.999016 -24.507435,0 -25.261706,23.892456 -25.261706,23.892456 z"
       id="path3101-9"
       sodipodi:nodetypes="cccscc" />
    <path
       style="fill:#ffffff;stroke:none;stroke-width:1.27797px;stroke-linecap:butt;stroke-linejoin:miter;stroke-opacity:1"
       d="m 37.911962,23.912802 v -11.32111 c 0,0 -0.297943,-5.0315807 4.76721,-5.0315807 5.065149,0 16.983153,0 16.983153,0 0,0 -19.962655,-1.572379 -21.750363,16.3526907 z"
       id="path3103-2" />
    <path
       style="fill:#000000;stroke:none;stroke-width:1.15412px;stroke-linecap:butt;stroke-linejoin:miter;stroke-opacity:1"
       d="M 63.060655,32.931904 H 40.174532 c 0,0 1.116406,24.09437 -3.34919,31.21312 -4.46558,7.11884 -10.884858,8.76163 -10.884858,8.76163 0,0 18.420531,-1.91665 18.978727,-14.78517 0.55821,-12.86856 -1.953687,-24.641955 18.141444,-25.18958 z"
       id="path3105-2"
       sodipodi:nodetypes="ccscsc" />
    <path
       style="fill:#000000;stroke:none;stroke-width:1.0632px;stroke-linecap:butt;stroke-linejoin:miter;stroke-opacity:1"
       d="m 70.728555,69.246894 c 0,0 21.08718,5.75105 21.08718,25.61817 0,19.867146 -0.49617,30.584936 -0.49617,30.584936 0,0 3.72126,-42.609796 -20.59101,-56.203106 z"
       id="path3107-7" />
    <path
       style="fill:#000000;stroke:none;stroke-width:1.00107px;stroke-linecap:butt;stroke-linejoin:miter;stroke-opacity:1"
       d="M 85.019075,183.99222 H 18.098185 L 12.86999,142.06927 c 0,0 1.568452,44.37637 72.149085,41.92295 z"
       id="path3109-2"
       sodipodi:nodetypes="cccc" />
    <path
       style="fill:#000000;stroke:none;stroke-width:1.13573px;stroke-linecap:butt;stroke-linejoin:miter;stroke-opacity:1"
       d="m 73.816605,53.746387 c 0,0 8.83414,-11.489188 30.440375,0.345256 9.11494,4.992561 2.77997,25.364271 2.77997,25.364271 0,0 -3.19978,-44.32951 -33.220345,-25.709403 z"
       id="path3107-2-1"
       sodipodi:nodetypes="csccc" />
    <path
       style="fill:#000000;fill-opacity:1;stroke:none;stroke-width:1.09138px;stroke-linecap:butt;stroke-linejoin:miter;stroke-opacity:1"
       d="m 66.981805,49.628766 2.61409,6.468951 4.22071,-3.290905 c 0,0 -3.69789,2.560546 -6.8348,-3.178046 z"
       id="path3131-1" />
    <path
       style="fill:#000000;fill-opacity:1;stroke:none;stroke-width:1.09138px;stroke-linecap:butt;stroke-linejoin:miter;stroke-opacity:1"
       d="m 95.214055,86.784874 2.6141,10.69431 c 8.079365,-5.07646 14.316295,-41.828774 8.953295,-23.06941 -1.45376,5.08512 -13.062385,14.99133 -11.567395,12.3751 z"
       id="path3133-9"
       sodipodi:nodetypes="ccsc" />
    <path
       style="fill:#000000;fill-opacity:1;stroke:#000000;stroke-width:1.09138px;stroke-linecap:butt;stroke-linejoin:miter;stroke-opacity:1"
       d="m 101.68396,82.448094 c 0,0 4.77072,-5.42423 3.65973,-14.05077 -1.11099,-8.62653 2.87551,5.48962 2.87551,5.48962 z"
       id="path3135-7"
       sodipodi:nodetypes="cscc" />
    <path
       style="fill:none;stroke:#ffffff;stroke-width:0.890616px;stroke-linecap:butt;stroke-linejoin:miter;stroke-opacity:1"
       d="m 52.441305,146.03406 c 0,0 -19.30767,-9.6538 -19.081406,-19.2322 0.226252,-9.5784 4.525239,-17.27134 16.969631,-17.79929 12.444395,-0.52795 21.190225,4.59879 21.494855,17.79929 0.22629,9.80469 -19.38308,19.2322 -19.38308,19.2322 z"
       id="path3807"
       sodipodi:nodetypes="csssc" />
    <path
       style="fill:#ffffff;stroke:none;stroke-width:1.09138px;stroke-linecap:butt;stroke-linejoin:miter;stroke-opacity:1"
       d="m 39.948907,112.14757 c 0,0 3.79044,4.57471 8.234409,4.70539 4.443959,0.13076 6.486669,-3.47905 10.064259,-4.83606 3.79045,-1.43779 7.05807,0.65351 7.05807,0.65351 0,0 -11.76343,-8.23442 -25.356738,-0.52284 z"
       id="path3820"
       sodipodi:nodetypes="csscc" />
    <path
       style="fill:none;stroke:#ffffff;stroke-width:0.680612;stroke-linecap:square;stroke-linejoin:bevel;stroke-miterlimit:4;stroke-dasharray:none;stroke-opacity:1"
       d="m 37.726922,113.84675 c 0,0 4.182556,5.0975 9.410747,6.27385 5.358906,0.52266 10.453906,-6.12217 14.769646,-5.62034 5.62032,0.65352 8.36512,4.31327 8.36512,4.31327"
       id="path3822"
       sodipodi:nodetypes="ccsc" />
    <path
       style="fill:#ffffff;fill-opacity:1;stroke:none;stroke-width:1.09138px;stroke-linecap:butt;stroke-linejoin:miter;stroke-opacity:1"
       d="m 37.465513,130.9691 c 6.457076,8.87655 8.644217,11.533 14.975792,15.06496 6.04383,-4.58782 11.5822,-4.70509 15.47844,-16.37202 -6.01242,10.71774 -8.49582,11.63269 -13.4626,10.45635 0,0 -5.816367,5.09737 -16.991632,-9.14929 z"
       id="path3824"
       sodipodi:nodetypes="ccccc" />
    <path
       style="fill:#ffffff;fill-opacity:1;stroke:none;stroke-width:1.09138px;stroke-linecap:butt;stroke-linejoin:miter;stroke-opacity:1"
       d="m 59.423925,141.29473 c 0,0 2.22198,-4.70534 3.39833,-8.62649 0.79228,-2.64094 1.30704,-8.62649 1.30704,-8.62649 -1.70401,5.67069 -3.6089,17.4042 -8.49582,16.73015 z"
       id="path3826"
       sodipodi:nodetypes="cscsc" />
    <path
       style="fill:#ffffff;fill-opacity:1;stroke:none;stroke-width:1.05199px;stroke-linecap:butt;stroke-linejoin:miter;stroke-opacity:1"
       d="m 51.091495,141.27959 c 0,0 -2.894109,-4.24578 -4.689126,-7.89922 -1.208966,-2.46069 -2.779196,-8.25637 -2.779196,-8.25637 2.565805,5.51185 4.833675,12.75884 9.919042,16.4648 z"
       id="path3826-2"
       sodipodi:nodetypes="csccc" />
    <path
       style="fill:#ffffff;fill-opacity:1;stroke:none;stroke-width:1.09138px;stroke-linecap:butt;stroke-linejoin:miter;stroke-opacity:1"
       d="m 55.633475,140.7719 c 0,0 0.72131,-5.15335 0.67767,-9.24692 -0.0293,-2.75706 -1.3189,-8.62472 -1.3189,-8.62472 0.0604,5.92091 1.73303,17.68977 -3.1331,18.50032 z"
       id="path3826-6"
       sodipodi:nodetypes="cscsc" />
    <path
       style="fill:#ffffff;fill-opacity:1;stroke:none;stroke-width:1.37801px;stroke-linecap:butt;stroke-linejoin:miter;stroke-opacity:1"
       d="m 36.895779,128.5931 c 0,0 -1.400333,-4.14266 -0.350082,-7.00168 1.050251,-2.85903 2.275551,-4.55111 2.275551,-4.55111 0,0 -2.508931,7.76022 -1.925469,11.55279 z"
       id="path3866" />
  </g>
</svg>
