<?xml version="1.0" encoding="UTF-8" standalone="no"?>
<svg
   xmlns:dc="http://purl.org/dc/elements/1.1/"
   xmlns:cc="http://creativecommons.org/ns#"
   xmlns:rdf="http://www.w3.org/1999/02/22-rdf-syntax-ns#"
   xmlns:svg="http://www.w3.org/2000/svg"
   xmlns="http://www.w3.org/2000/svg"
   xmlns:sodipodi="http://sodipodi.sourceforge.net/DTD/sodipodi-0.dtd"
   xmlns:inkscape="http://www.inkscape.org/namespaces/inkscape"
   width="192mm"
   height="110mm"
   viewBox="0 0 192 110"
   version="1.1"
   id="svg2446"
   inkscape:version="1.0.2-2 (e86c870879, 2021-01-15)"
   sodipodi:docname="vanilla.svg">
  <defs
     id="defs2440" />
  <sodipodi:namedview
     id="base"
     pagecolor="#ffffff"
     bordercolor="#666666"
     borderopacity="1.0"
     inkscape:pageopacity="0.0"
     inkscape:pageshadow="2"
     inkscape:zoom="0.35"
     inkscape:cx="400"
     inkscape:cy="560"
     inkscape:document-units="mm"
     inkscape:current-layer="layer1"
     inkscape:document-rotation="0"
     showgrid="false"
     inkscape:window-width="1267"
     inkscape:window-height="1040"
     inkscape:window-x="26"
     inkscape:window-y="0"
     inkscape:window-maximized="0" />
  <metadata
     id="metadata2443">
    <rdf:RDF>
      <cc:Work
         rdf:about="">
        <dc:format>image/svg+xml</dc:format>
        <dc:type
           rdf:resource="http://purl.org/dc/dcmitype/StillImage" />
        <dc:title></dc:title>
      </cc:Work>
    </rdf:RDF>
  </metadata>
  <g
     inkscape:label="Layer 1"
     inkscape:groupmode="layer"
     id="layer1">
    <path
       style="fill:none;stroke:#000000;stroke-width:2.7219;stroke-linecap:round;stroke-linejoin:miter;stroke-miterlimit:4;stroke-dasharray:none;stroke-opacity:1"
       d="m 52.726552,67.026941 c -2.77783,-4.42652 -14.484245,-0.32769 -9.159056,9.53158 6.262902,11.59534 98.459774,-42.59432 133.460434,-38.12638"
       id="path2293"
       sodipodi:nodetypes="csc" />
    <path
       style="fill:none;stroke:#000000;stroke-width:1.52861;stroke-linecap:round;stroke-linejoin:miter;stroke-miterlimit:4;stroke-dasharray:none;stroke-opacity:1"
       d="M 46.991375,91.405001 C 54.096526,104.75218 126.82918,28.980791 158.10094,25.230731"
       id="path2293-4"
       sodipodi:nodetypes="cc" />
    <path
       style="fill:none;stroke:#000000;stroke-width:1.24715;stroke-linecap:round;stroke-linejoin:miter;stroke-miterlimit:4;stroke-dasharray:none;stroke-opacity:1"
       d="m 153.65864,49.123021 c 0.67522,-4.02947 9.97653,-4.02731 9.07182,4.72255 -1.06404,10.29063 -80.535168,-6.07973 -103.600116,6.3961"
       id="path2293-8"
       sodipodi:nodetypes="csc" />
    <path
       style="fill:#ffffff;fill-opacity:1;stroke:#000000;stroke-width:0.86977px;stroke-linecap:butt;stroke-linejoin:miter;stroke-opacity:1"
       d="m 101.70067,56.006011 c -7.777632,3.17988 -28.135765,-19.59353 -31.035592,-21.14826 -3.51011,-1.88189 18.213379,-3.8722 30.452792,2.68077 12.23941,6.55297 0.5828,18.46749 0.5828,18.46749 z"
       id="path2324"
       sodipodi:nodetypes="cssc" />
    <path
       style="fill:#ffffff;fill-opacity:1;stroke:#000000;stroke-width:0.86977px;stroke-linecap:butt;stroke-linejoin:miter;stroke-opacity:1"
       d="m 104.69099,47.727821 c 0,0 -4.846787,-25.28683 4.29507,-38.635146 0,0 15.73638,25.467226 11.21946,36.786016 -3.20508,8.03146 -15.51453,1.84913 -15.51453,1.84913 z"
       id="path2326"
       sodipodi:nodetypes="cssc" />
    <path
       style="fill:#ffffff;fill-opacity:1;stroke:#000000;stroke-width:0.86977px;stroke-linecap:butt;stroke-linejoin:miter;stroke-opacity:1"
       d="m 113.94008,45.282961 c 0,0 12.7395,-16.37845 34.0955,-10.42521 0,0 -10.18538,4.39147 -24.62452,24.12687 -12.53081,17.12709 -9.47098,-13.70166 -9.47098,-13.70166 z"
       id="path2328"
       sodipodi:nodetypes="cssc" />
    <path
       style="fill:#ffffff;fill-opacity:1;stroke:#000000;stroke-width:0.86977px;stroke-linecap:butt;stroke-linejoin:miter;stroke-opacity:1"
       d="m 109.8603,60.771801 c 0,0 1.11545,13.6217 29.14144,25.91404 0,0 -6.67127,-29.19802 -17.48331,-35.22597 z"
       id="path2330"
       sodipodi:nodetypes="cscc" />
    <path
       style="fill:#ffffff;fill-opacity:1;stroke:#000000;stroke-width:0.86977px;stroke-linecap:butt;stroke-linejoin:miter;stroke-opacity:1"
       d="m 100.53503,53.027361 c -13.408506,13.06339 -14.764987,22.33969 -20.399008,31.8713 0,0 25.115438,-9.34802 29.724278,-24.12686 z"
       id="path2332"
       sodipodi:nodetypes="cccc" />
    <path
       style="fill:#ffffff;stroke:#000000;stroke-width:0.869763px;stroke-linecap:butt;stroke-linejoin:miter;stroke-opacity:1"
       d="m 101.70067,56.006011 c 0,0 -7.43105,-3.87237 -4.808319,-8.63806 3.824309,-6.94899 11.219469,-4.61683 12.676549,-2.68076 1.45705,1.9361 0,0 0,0 0,0 7.75549,-5.94341 12.67651,1.04248 2.6227,3.72317 1.60419,9.0067 -4.80832,10.87184 -1.15563,0.33614 4.95403,4.6168 -0.43714,5.80824 -5.39116,1.19144 -7.13965,-1.63822 -7.13965,-1.63822 0,0 -2.18562,3.57429 -7.72249,1.63822 -5.536863,-1.93607 -0.43714,-6.40374 -0.43714,-6.40374 z"
       id="path2358"
       sodipodi:nodetypes="csscssscsc" />
    <path
       style="fill:#ffffff;stroke:#000000;stroke-width:0.86977px;stroke-linecap:butt;stroke-linejoin:miter;stroke-opacity:1"
       d="m 109.5689,44.687221 c 0,0 -7.28535,8.19125 -4.22552,10.4252 3.05987,2.23399 4.95406,-1.34036 4.95406,-1.34036 0,0 2.76843,4.31901 4.66262,0.14889 1.89419,-4.17005 -5.39116,-9.23376 -5.39116,-9.23376 z"
       id="path2360"
       sodipodi:nodetypes="cscscc" />
    <path
       style="fill:#000000;stroke:#000000;stroke-width:0.86977px;stroke-linecap:butt;stroke-linejoin:miter;stroke-opacity:1"
       d="m 110.29744,53.772061 -0.72854,-9.08484 c 0,0 6.70251,5.95726 5.24543,9.38269 -1.45705,3.42542 -4.51689,-0.29779 -4.51689,-0.29779 z"
       id="path2364" />
    <path
       style="fill:#000000;stroke:none;stroke-width:0.68945px;stroke-linecap:butt;stroke-linejoin:miter;stroke-opacity:1"
       d="M 109.3449,42.823441 108.90464,13.2158 c 0,0 7.59457,12.950651 8.03487,15.180551 0.44026,2.22983 2.1919,9.54567 2.1919,9.54567 0,0 -2.64163,2.28132 -2.75169,3.14848 -0.1099,0.8672 -3.35007,-0.79617 -7.03482,1.73294"
       id="path2366"
       sodipodi:nodetypes="ccsccc" />
    <path
       style="fill:#000000;stroke:none;stroke-width:0.86977px;stroke-linecap:butt;stroke-linejoin:miter;stroke-opacity:1"
       d="m 124.57674,47.963721 c 0,0 1.74845,-5.8083 7.86819,-7.89336 2.92902,-0.99795 10.78232,-4.76579 10.78232,-4.76579 0,0 -10.92806,-1.34037 -16.61062,2.38291 -5.6826,3.72328 -6.26541,4.61686 -6.26541,4.61686 0,0 4.22552,3.42539 4.22552,5.65938 z"
       id="path2368"
       sodipodi:nodetypes="cscscc" />
    <path
       style="fill:#000000;stroke:none;stroke-width:0.86977px;stroke-linecap:butt;stroke-linejoin:miter;stroke-opacity:1"
       d="m 120.64263,58.239991 15.00784,24.12683 c 0,0 -12.82225,-7.29762 -16.90203,-10.87197 -4.07981,-3.57435 -5.6826,-7.59548 -5.6826,-7.59548 0,0 5.974,0.74466 7.13968,-0.44678 1.16565,-1.19147 1.01995,-4.31901 0.43711,-5.2126 z"
       id="path2370" />
    <path
       style="fill:#000000;fill-opacity:1;stroke:none;stroke-width:0.86977px;stroke-linecap:butt;stroke-linejoin:miter;stroke-opacity:1"
       d="m 99.806485,62.707931 -14.425002,16.97816 c 0,0 11.365166,-6.25511 14.425002,-9.08483 3.059865,-2.82969 6.411145,-5.95723 6.411145,-5.95723 0,0 -4.66266,1.34037 -6.411145,-1.9361 z"
       id="path2372" />
    <path
       style="fill:#000000;fill-opacity:1;stroke:none;stroke-width:0.86977px;stroke-linecap:butt;stroke-linejoin:miter;stroke-opacity:1"
       d="m 73.433478,35.006711 23.750276,9.38269 c 0,0 -3.496941,1.48926 -3.205537,3.27644 0.728541,4.46797 0.728541,4.46797 0.728541,4.46797 0,0 -14.13363,-9.82947 -21.27328,-17.1271 z"
       id="path2374"
       sodipodi:nodetypes="ccscc" />
    <path
       style="fill:none;stroke:#000000;stroke-width:0.86977px;stroke-linecap:butt;stroke-linejoin:miter;stroke-opacity:1"
       d="m 110.29744,53.772121 -0.43714,6.99968 z"
       id="path2380" />
    <path
       style="fill:#000000;stroke:none;stroke-width:0.151749"
       d="m 105.04031,42.944151 c -0.32353,0.31905 0.2185,1.08625 0.17168,1.55144 0.37194,1.60159 0.506,3.32964 1.02033,4.85851 0.79644,-0.58403 1.16422,-1.75314 1.8209,-2.53383 0.44595,-0.81512 1.3134,-1.52545 1.51558,-2.41857 -1.29733,-0.96361 -2.97764,-1.32491 -4.52859,-1.45755 z"
       id="path2394" />
    <path
       style="fill:#000000;stroke:none;stroke-width:0.178284"
       d="m 116.89607,42.623471 c -0.46543,0.47459 -0.31996,1.4946 -0.56942,2.14694 -0.35077,1.99007 -0.82296,4.04017 -1.04855,6.00515 2.37314,-1.52352 4.61475,-3.25277 6.93148,-4.86317 -1.42622,-1.53588 -3.14379,-3.02906 -5.31351,-3.28892 z"
       id="path2396" />
    <path
       style="fill:#000000;stroke:none;stroke-width:0.169465"
       d="m 113.96756,55.307811 c -0.51986,0.0771 -1.3079,0.31407 -0.53238,0.91356 1.42321,1.94079 2.66835,4.10548 4.33604,5.78943 1.09662,0.18943 2.02347,-1.39082 1.19446,-2.38132 -0.62551,-1.07691 -1.18646,-2.31302 -1.96797,-3.21016 -1.0034,-0.3614 -1.968,-1.01902 -3.03015,-1.11151 z"
       id="path2402" />
    <path
       style="fill:#000000;stroke:none;stroke-width:0.165453"
       d="m 109.94312,55.017771 c -1.82109,2.51548 -3.66469,5.07849 -5.25632,7.76035 1.07808,0.35728 2.32986,-0.23862 3.35732,-0.67988 1.02593,-0.55446 1.92992,-1.59272 1.75131,-2.97121 -0.002,-1.3624 0.24289,-2.77588 0.18502,-4.10414 -0.01,-0.007 -0.026,-0.0166 -0.0374,-0.003 z"
       id="path2404" />
    <path
       style="fill:#000000;stroke:none;stroke-width:0.165945"
       d="m 96.580755,48.607781 c -0.601081,2.48597 1.454547,4.66259 3.246182,6.11283 0.742293,0.44416 1.465573,1.28729 2.345763,1.33558 0.87262,-0.28416 1.71181,-0.65831 2.56414,-0.99598 -0.0615,-1.01114 0.068,-2.05984 0.23411,-3.02262 -2.51055,-1.26688 -5.217042,-2.22013 -7.841041,-3.26998 -0.181436,-0.0525 -0.359426,-0.14723 -0.549284,-0.15986 z"
       id="path2406" />
  </g>
</svg>
